# Blender v2.78 (sub 0) OBJ File: 'waterwheelCentered.blend'
# www.blender.org
mtllib waterwheel_centered.mtl
o Cube.006_Cube.007
v 0.500000 -0.031250 -0.500000
v 0.500000 -0.031250 0.500000
v -0.500000 -0.031250 0.500000
v -0.500000 -0.031250 -0.500000
v 0.500000 0.031250 -0.500000
v 0.500000 0.031250 0.500000
v -0.500000 0.031250 0.500000
v -0.500000 0.031250 -0.500000
v 1.000000 -0.031250 -0.500000
v 1.000000 -0.031250 0.500000
v 1.000000 0.031250 -0.500000
v 1.000000 0.031250 0.500000
v -1.000000 -0.031250 0.500000
v -1.000000 -0.031250 -0.500000
v -1.000000 0.031250 0.500000
v -1.000000 0.031250 -0.500000
v -0.031250 -0.500000 -0.500000
v -0.031250 -0.500000 0.500000
v -0.031250 0.500000 0.500000
v -0.031250 0.500000 -0.500000
v 0.031250 -0.500000 -0.500000
v 0.031250 -0.500000 0.500000
v 0.031250 0.500000 0.500000
v 0.031250 0.500000 -0.500000
v -0.031250 -1.000000 -0.500000
v -0.031250 -1.000000 0.500000
v 0.031250 -1.000000 -0.500000
v 0.031250 -1.000000 0.500000
v -0.031250 1.000000 0.500000
v -0.031250 1.000000 -0.500000
v 0.031250 1.000000 0.500000
v 0.031250 1.000000 -0.500000
v -0.375650 -0.331456 -0.500000
v -0.375650 -0.331456 0.500000
v 0.331456 0.375651 0.500000
v 0.331456 0.375650 -0.500000
v -0.331457 -0.375651 -0.500000
v -0.331456 -0.375650 0.500000
v 0.375650 0.331456 0.500000
v 0.375650 0.331456 -0.500000
v -0.729204 -0.685010 -0.500000
v -0.729204 -0.685010 0.500000
v -0.685010 -0.729204 -0.500000
v -0.685009 -0.729204 0.500000
v 0.685009 0.729204 0.500000
v 0.685009 0.729204 -0.500000
v 0.729204 0.685010 0.500000
v 0.729203 0.685010 -0.500000
v 0.331456 -0.375650 -0.500000
v 0.331456 -0.375650 0.500000
v -0.375650 0.331456 0.500000
v -0.375650 0.331456 -0.500000
v 0.375651 -0.331457 -0.500000
v 0.375650 -0.331456 0.500000
v -0.331456 0.375651 0.500000
v -0.331456 0.375650 -0.500000
v 0.685010 -0.729204 -0.500000
v 0.685010 -0.729204 0.500000
v 0.729204 -0.685010 -0.500000
v 0.729204 -0.685009 0.500000
v -0.729204 0.685010 0.500000
v -0.729204 0.685010 -0.500000
v -0.685010 0.729204 0.500000
v -0.685010 0.729204 -0.500000
v -0.062188 -0.125000 -0.550000
v -0.062188 -0.125000 0.550000
v 0.062500 -0.125000 0.550000
v 0.062500 0.125000 0.550000
v -0.062500 0.125000 0.550000
v -0.125000 -0.062500 0.550000
v -0.125000 0.062500 0.550000
v -0.062188 -0.062500 -0.550000
v -0.062500 0.062500 -0.550000
v 0.125000 0.062500 0.550000
v 0.125000 -0.062500 0.550000
v 0.062500 0.062500 0.550000
v 0.062500 -0.062500 0.550000
v -0.062500 0.062500 0.550000
v -0.062188 -0.062500 0.550000
v 0.062500 -0.062500 -0.550000
v 0.062500 0.062500 -0.550000
v 0.125000 -0.062500 -0.550000
v 0.125000 0.062500 -0.550000
v -0.125000 0.062500 -0.550000
v -0.125000 -0.062500 -0.550000
v -0.062500 0.125000 -0.550000
v 0.062500 0.125000 -0.550000
v 0.062500 -0.125000 -0.550000
v 0.125000 0.062500 -0.550000
v -0.125000 -0.062500 0.275000
v -0.125000 -0.062500 -0.000000
v -0.125000 -0.062500 -0.275000
v -0.125000 0.062500 0.275000
v -0.125000 0.062500 -0.000000
v -0.125000 0.062500 -0.275000
v -0.062500 0.062500 0.275000
v -0.062500 0.062500 -0.000000
v -0.062500 0.062500 -0.275000
v -0.062500 0.125000 0.275000
v -0.062500 0.125000 -0.000000
v -0.062500 0.125000 -0.275000
v 0.062500 0.125000 -0.275000
v 0.062500 0.125000 0.000000
v 0.062500 0.125000 0.275000
v 0.062500 0.062500 0.275000
v 0.062500 0.062500 -0.000000
v 0.062500 0.062500 -0.275000
v 0.125000 0.062500 -0.275000
v 0.125000 0.062500 0.000000
v 0.125000 0.062500 0.275000
v 0.125000 -0.062500 0.275000
v 0.125000 -0.062500 -0.000000
v 0.125000 -0.062500 -0.275000
v 0.062500 -0.062500 -0.275000
v 0.062500 -0.062500 0.000000
v 0.062500 -0.062500 0.275000
v 0.062500 -0.125000 -0.275000
v 0.062500 -0.125000 0.000000
v 0.062500 -0.125000 0.275000
v -0.062188 -0.125000 -0.275000
v -0.062188 -0.125000 0.000000
v -0.062188 -0.125000 0.275000
v -0.062188 -0.062500 0.275000
v -0.062188 -0.062500 -0.000000
v -0.062188 -0.062500 -0.275000
vt 0.9999 0.0001
vt 0.0001 0.9999
vt 0.0001 0.0001
vt 0.9999 0.0001
vt 0.0001 0.9999
vt 0.0001 0.0001
vt 0.5000 0.0001
vt 0.0001 0.9999
vt 0.0001 0.0001
vt 0.9999 0.1251
vt 0.0001 0.0626
vt 0.9999 0.0626
vt 0.5000 0.1878
vt 0.0001 0.1253
vt 0.5000 0.1253
vt 0.9999 0.1251
vt 0.0001 0.0626
vt 0.9999 0.0626
vt 1.0000 0.0625
vt 0.0000 0.0000
vt 1.0000 0.0000
vt 0.0001 0.0627
vt 0.5000 0.1252
vt 0.0001 0.1252
vt 0.0001 0.1253
vt 0.5000 0.1878
vt 0.0001 0.1878
vt -0.0000 0.0001
vt 0.4999 0.9999
vt -0.0000 0.9999
vt 0.0000 0.0000
vt 1.0000 0.0625
vt 0.0000 0.0625
vt 0.0001 0.0001
vt 0.5000 0.9999
vt 0.0001 0.9999
vt 0.5000 0.0627
vt 0.0001 0.1252
vt 0.0001 0.0627
vt 0.5000 1.0000
vt 0.0000 0.0001
vt 0.5000 0.0001
vt 0.9999 0.9999
vt 0.0001 0.0001
vt 0.9999 0.0001
vt 0.9999 0.0001
vt 0.0001 0.9999
vt 0.0001 0.0001
vt 0.5000 0.9999
vt 0.0001 0.0001
vt 0.5000 0.0001
vt 0.9999 0.1251
vt 0.0001 0.0626
vt 0.9999 0.0626
vt 0.5000 0.1878
vt 0.0001 0.1253
vt 0.5000 0.1253
vt 0.9999 0.1251
vt 0.0001 0.0626
vt 0.9999 0.0626
vt 1.0000 0.0625
vt 0.0000 0.0000
vt 1.0000 0.0000
vt 0.0001 0.0627
vt 0.5000 0.1252
vt 0.0001 0.1252
vt 0.0001 0.1253
vt 0.5000 0.1878
vt 0.0001 0.1878
vt -0.0000 0.0001
vt 0.4999 0.9999
vt -0.0000 0.9999
vt 0.0000 0.0000
vt 1.0000 0.0625
vt 0.0000 0.0625
vt 0.0001 0.0001
vt 0.5000 0.9999
vt 0.0001 0.9999
vt 0.5000 0.1252
vt 0.0001 0.0627
vt 0.5000 0.0627
vt 0.5000 0.0001
vt 0.0000 1.0000
vt 0.0000 0.0001
vt 0.9999 0.0001
vt 0.0001 0.9999
vt 0.0001 0.0001
vt 0.9999 0.0001
vt 0.0001 0.9999
vt 0.0001 0.0001
vt 0.5000 0.0001
vt 0.0001 0.9999
vt 0.0001 0.0001
vt 0.9999 0.1251
vt 0.0001 0.0626
vt 0.9999 0.0626
vt 0.5000 0.1878
vt 0.0001 0.1253
vt 0.5000 0.1253
vt 0.9999 0.1251
vt 0.0001 0.0626
vt 0.9999 0.0626
vt 1.0000 0.0625
vt 0.0000 0.0000
vt 1.0000 0.0000
vt 0.0001 0.0627
vt 0.5000 0.1252
vt 0.0001 0.1252
vt 0.0001 0.1253
vt 0.5000 0.1878
vt 0.0001 0.1878
vt -0.0000 0.9999
vt 0.4999 0.0001
vt 0.4999 0.9999
vt 0.0000 0.0000
vt 1.0000 0.0625
vt 0.0000 0.0625
vt 0.0001 0.0001
vt 0.5000 0.9999
vt 0.0001 0.9999
vt 0.5000 0.0627
vt 0.0001 0.1252
vt 0.0001 0.0627
vt 0.5000 1.0000
vt 0.0000 0.0001
vt 0.5000 0.0001
vt 0.9999 0.9999
vt 0.0001 0.0001
vt 0.9999 0.0001
vt 0.9999 0.0001
vt 0.0001 0.9999
vt 0.0001 0.0001
vt 0.5000 0.0001
vt 0.0001 0.9999
vt 0.0001 0.0001
vt 0.9999 0.1251
vt 0.0001 0.0626
vt 0.9999 0.0626
vt 0.5000 0.1878
vt 0.0001 0.1253
vt 0.5000 0.1253
vt 0.9999 0.1251
vt 0.0001 0.0626
vt 0.9999 0.0626
vt 1.0000 0.0625
vt 0.0000 0.0000
vt 1.0000 0.0000
vt 0.0001 0.0627
vt 0.5000 0.1252
vt 0.0001 0.1252
vt 0.0001 0.1253
vt 0.5000 0.1878
vt 0.0001 0.1878
vt -0.0000 0.9999
vt 0.4999 0.0001
vt 0.4999 0.9999
vt 0.0000 0.0000
vt 1.0000 0.0625
vt 0.0000 0.0625
vt 0.0001 0.0001
vt 0.5000 0.9999
vt 0.0001 0.9999
vt 0.5000 0.0627
vt 0.0001 0.1252
vt 0.0001 0.0627
vt 0.5000 1.0000
vt 0.0000 0.0001
vt 0.5000 0.0001
vt 0.9999 0.9999
vt 0.9999 0.9999
vt 0.5000 0.9999
vt 0.0001 0.1251
vt 0.0001 0.1878
vt 0.0001 0.1251
vt 0.0000 0.0625
vt 0.5000 0.0627
vt 0.5000 0.1253
vt 0.4999 0.0001
vt 1.0000 0.0000
vt 0.5000 0.0001
vt 0.5000 0.1252
vt 0.0000 1.0000
vt 0.0001 0.9999
vt 0.9999 0.9999
vt 0.0001 0.9999
vt 0.0001 0.1251
vt 0.0001 0.1878
vt 0.0001 0.1251
vt 0.0000 0.0625
vt 0.5000 0.0627
vt 0.5000 0.1253
vt 0.4999 0.0001
vt 1.0000 0.0000
vt 0.5000 0.0001
vt 0.0001 0.1252
vt 0.5000 1.0000
vt 0.9999 0.9999
vt 0.9999 0.9999
vt 0.5000 0.9999
vt 0.0001 0.1251
vt 0.0001 0.1878
vt 0.0001 0.1251
vt 0.0000 0.0625
vt 0.5000 0.0627
vt 0.5000 0.1253
vt -0.0000 0.0001
vt 1.0000 0.0000
vt 0.5000 0.0001
vt 0.5000 0.1252
vt 0.0000 1.0000
vt 0.0001 0.9999
vt 0.9999 0.9999
vt 0.5000 0.9999
vt 0.0001 0.1251
vt 0.0001 0.1878
vt 0.0001 0.1251
vt 0.0000 0.0625
vt 0.5000 0.0627
vt 0.5000 0.1253
vt -0.0000 0.0001
vt 1.0000 0.0000
vt 0.5000 0.0001
vt 0.5000 0.1252
vt 0.0000 1.0000
vt 0.9999 0.7487
vt 0.7500 0.2501
vt 0.9999 0.2501
vt 0.7499 0.9999
vt 0.2500 0.7499
vt 0.7499 0.7487
vt 0.2501 0.0001
vt 0.2500 0.2500
vt 0.0001 0.2500
vt 0.7499 0.2501
vt 0.2513 0.0001
vt 0.7499 0.0001
vt 0.0001 0.2501
vt 0.2500 0.7499
vt 0.0001 0.7500
vt 0.7499 0.7500
vt 0.9999 0.2501
vt 0.9999 0.7500
vt 0.7499 0.9999
vt 0.2513 0.2501
vt 0.9999 0.0001
vt 0.0001 0.5000
vt 0.0001 0.0001
vt 0.0000 0.0000
vt 1.0000 0.2273
vt 0.0000 0.2273
vt 0.0000 0.0000
vt 1.0000 0.2273
vt 0.0000 0.2273
vt 0.0001 0.5004
vt 0.9999 0.0001
vt 0.9999 0.5004
vt 1.0000 0.0000
vt 0.0000 0.2273
vt 0.0000 0.0000
vt 0.0000 0.2273
vt 1.0000 0.0000
vt 1.0000 0.2273
vt 0.0001 0.0001
vt 0.9999 0.5004
vt 0.0001 0.5004
vt 1.0000 0.2273
vt 0.0000 0.0000
vt 1.0000 0.0000
vt 0.9999 0.4993
vt 0.0001 0.0001
vt 0.9999 0.0001
vt 1.0000 0.0000
vt 0.0000 0.2273
vt 0.0000 0.0000
vt 0.0000 0.0000
vt 1.0000 0.2273
vt 0.0000 0.2273
vt 1.0000 0.0000
vt 0.0000 0.2284
vt 0.0000 0.0000
vt 1.0000 0.0000
vt 0.0000 0.2284
vt 0.0000 0.0000
vt 1.0000 0.0000
vt 0.0000 0.2284
vt 0.0000 0.0000
vt 1.0000 0.0000
vt 0.0000 0.2284
vt 0.0000 0.0000
vt 0.0000 0.0000
vt 1.0000 0.2273
vt 0.0000 0.2273
vt 0.0000 0.0000
vt 1.0000 0.2273
vt 0.0000 0.2273
vt 0.0000 0.0000
vt 1.0000 0.2273
vt 0.0000 0.2273
vt 1.0000 0.0000
vt 0.0000 0.2273
vt 0.0000 0.0000
vt 1.0000 0.0000
vt 0.0000 0.2273
vt 0.0000 0.0000
vt 1.0000 0.0000
vt 0.0000 0.2273
vt 0.0000 0.0000
vt 0.9999 0.4993
vt 0.0001 0.0001
vt 0.9999 0.0001
vt 0.9999 0.4993
vt 0.0001 0.0001
vt 0.9999 0.0001
vt 0.9999 0.4993
vt 0.0001 0.0001
vt 0.9999 0.0001
vt 1.0000 0.0000
vt 0.0000 0.2273
vt 0.0000 0.0000
vt 1.0000 0.0000
vt 0.0000 0.2273
vt 0.0000 0.0000
vt 1.0000 0.2273
vt 0.0000 0.0000
vt 1.0000 0.0000
vt 0.0001 0.5004
vt 0.9999 0.0001
vt 0.9999 0.5004
vt 0.0001 0.0001
vt 0.9999 0.5004
vt 0.0001 0.5004
vt 0.0001 0.0001
vt 0.9999 0.5004
vt 0.0001 0.5004
vt 0.0000 0.2273
vt 1.0000 0.0000
vt 1.0000 0.2273
vt 0.0000 0.2273
vt 1.0000 0.0000
vt 1.0000 0.2273
vt 0.0000 0.2273
vt 1.0000 0.0000
vt 1.0000 0.2273
vt 1.0000 0.0000
vt 0.0000 0.2273
vt 0.0000 0.0000
vt 0.0000 0.0000
vt 1.0000 0.2273
vt 0.0000 0.2273
vt 0.0000 0.0000
vt 1.0000 0.2273
vt 0.0000 0.2273
vt 0.0001 0.5004
vt 0.9999 0.0001
vt 0.9999 0.5004
vt 0.0001 0.5004
vt 0.9999 0.0001
vt 0.9999 0.5004
vt 0.9999 -0.0000
vt 0.0001 0.5000
vt 0.0001 0.0000
vt 0.0000 0.0000
vt 1.0000 0.2273
vt 0.0000 0.2273
vt 0.0000 0.0000
vt 1.0000 0.2273
vt 0.0000 0.2273
vt 0.0000 0.0000
vt 1.0000 0.2273
vt 0.0000 0.2273
vt 0.0000 0.0000
vt 1.0000 0.2273
vt 0.0000 0.2273
vt 0.0000 0.0000
vt 1.0000 0.2273
vt 0.0000 0.2273
vt 0.0000 0.0000
vt 1.0000 0.2273
vt 0.0000 0.2273
vt 0.9999 0.0001
vt 0.0001 0.5000
vt 0.0001 0.0001
vt 0.9999 0.0001
vt 0.0001 0.5000
vt 0.0001 0.0001
vt 0.9999 0.0001
vt 0.0001 0.5000
vt 0.0001 0.0001
vt 0.2500 0.9999
vt 0.7500 0.0001
vt 0.0001 0.7499
vt 0.2500 0.9999
vt 0.9999 0.5000
vt 1.0000 0.0000
vt 1.0000 0.0000
vt 0.0001 0.0001
vt 1.0000 0.2273
vt 0.0000 0.0000
vt 0.9999 0.0001
vt 0.0000 0.2273
vt 0.0001 0.4993
vt 1.0000 0.2273
vt 1.0000 0.0000
vt 1.0000 0.2284
vt 1.0000 0.2284
vt 1.0000 0.2284
vt 1.0000 0.2284
vt 1.0000 0.0000
vt 1.0000 0.0000
vt 1.0000 0.0000
vt 1.0000 0.2273
vt 1.0000 0.2273
vt 1.0000 0.2273
vt 0.0001 0.4993
vt 0.0001 0.4993
vt 0.0001 0.4993
vt 1.0000 0.2273
vt 1.0000 0.2273
vt 0.0000 0.2273
vt 0.0001 0.0001
vt 0.9999 0.0001
vt 0.9999 0.0001
vt 0.0000 0.0000
vt 0.0000 0.0000
vt 0.0000 0.0000
vt 1.0000 0.2273
vt 1.0000 0.0000
vt 1.0000 0.0000
vt 0.0001 0.0001
vt 0.0001 0.0001
vt 0.9999 0.5000
vt 1.0000 0.0000
vt 1.0000 0.0000
vt 1.0000 0.0000
vt 1.0000 0.0000
vt 1.0000 0.0000
vt 1.0000 0.0000
vt 0.9999 0.5000
vt 0.9999 0.5000
vt 0.9999 0.5000
vn 0.0000 -1.0000 -0.0000
vn -0.0000 1.0000 0.0000
vn -0.0000 -0.0000 1.0000
vn 0.0000 0.0000 -1.0000
vn 1.0000 -0.0000 0.0000
vn -1.0000 0.0000 -0.0000
vn -0.7071 0.7071 0.0000
vn 0.7071 -0.7071 -0.0000
vn -0.7071 -0.7071 -0.0000
vn 0.7071 0.7071 -0.0000
usemtl Material
f 1/1/1 3/2/1 4/3/1
f 8/4/2 6/5/2 5/6/2
f 5/7/2 12/8/2 11/9/2
f 6/10/3 3/11/3 2/12/3
f 7/13/3 13/14/3 3/15/3
f 1/16/4 8/17/4 5/18/4
f 11/19/5 10/20/5 9/21/5
f 2/22/3 12/23/3 6/24/3
f 5/25/4 9/26/4 1/27/4
f 1/28/1 10/29/1 2/30/1
f 15/31/6 14/32/6 13/33/6
f 8/34/2 15/35/2 7/36/2
f 8/37/4 14/38/4 16/39/4
f 3/40/1 14/41/1 4/42/1
f 18/43/6 20/44/6 17/45/6
f 24/46/5 22/47/5 21/48/5
f 22/49/5 27/50/5 21/51/5
f 22/52/3 19/53/3 18/54/3
f 23/55/3 29/56/3 19/57/3
f 17/58/4 24/59/4 21/60/4
f 27/61/1 26/62/1 25/63/1
f 18/64/3 28/65/3 22/66/3
f 21/67/4 25/68/4 17/69/4
f 17/70/6 26/71/6 18/72/6
f 31/73/2 30/74/2 29/75/2
f 24/76/5 31/77/5 23/78/5
f 20/79/4 32/80/4 24/81/4
f 20/82/6 29/83/6 30/84/6
f 33/85/7 35/86/7 36/87/7
f 40/88/8 38/89/8 37/90/8
f 37/91/8 44/92/8 43/93/8
f 38/94/3 35/95/3 34/96/3
f 39/97/3 45/98/3 35/99/3
f 33/100/4 40/101/4 37/102/4
f 43/103/9 42/104/9 41/105/9
f 34/106/3 44/107/3 38/108/3
f 37/109/4 41/110/4 33/111/4
f 34/112/7 41/113/7 42/114/7
f 47/115/10 46/116/10 45/117/10
f 40/118/8 47/119/8 39/120/8
f 40/121/4 46/122/4 48/123/4
f 35/124/7 46/125/7 36/126/7
f 50/127/9 52/128/9 49/129/9
f 56/130/10 54/131/10 53/132/10
f 53/133/10 60/134/10 59/135/10
f 54/136/3 51/137/3 50/138/3
f 55/139/3 61/140/3 51/141/3
f 49/142/4 56/143/4 53/144/4
f 59/145/8 58/146/8 57/147/8
f 50/148/3 60/149/3 54/150/3
f 53/151/4 57/152/4 49/153/4
f 50/154/9 57/155/9 58/156/9
f 63/157/7 62/158/7 61/159/7
f 56/160/10 63/161/10 55/162/10
f 56/163/4 62/164/4 64/165/4
f 51/166/9 62/167/9 52/168/9
f 1/1/1 2/169/1 3/2/1
f 8/4/2 7/170/2 6/5/2
f 5/7/2 6/171/2 12/8/2
f 6/10/3 7/172/3 3/11/3
f 7/13/3 15/173/3 13/14/3
f 1/16/4 4/174/4 8/17/4
f 11/19/5 12/175/5 10/20/5
f 2/22/3 10/176/3 12/23/3
f 5/25/4 11/177/4 9/26/4
f 1/28/1 9/178/1 10/29/1
f 15/31/6 16/179/6 14/32/6
f 8/34/2 16/180/2 15/35/2
f 8/37/4 4/181/4 14/38/4
f 3/40/1 13/182/1 14/41/1
f 18/43/6 19/183/6 20/44/6
f 24/46/5 23/184/5 22/47/5
f 22/49/5 28/185/5 27/50/5
f 22/52/3 23/186/3 19/53/3
f 23/55/3 31/187/3 29/56/3
f 17/58/4 20/188/4 24/59/4
f 27/61/1 28/189/1 26/62/1
f 18/64/3 26/190/3 28/65/3
f 21/67/4 27/191/4 25/68/4
f 17/70/6 25/192/6 26/71/6
f 31/73/2 32/193/2 30/74/2
f 24/76/5 32/194/5 31/77/5
f 20/79/4 30/195/4 32/80/4
f 20/82/6 19/196/6 29/83/6
f 33/85/7 34/197/7 35/86/7
f 40/88/8 39/198/8 38/89/8
f 37/91/8 38/199/8 44/92/8
f 38/94/3 39/200/3 35/95/3
f 39/97/3 47/201/3 45/98/3
f 33/100/4 36/202/4 40/101/4
f 43/103/9 44/203/9 42/104/9
f 34/106/3 42/204/3 44/107/3
f 37/109/4 43/205/4 41/110/4
f 34/112/7 33/206/7 41/113/7
f 47/115/10 48/207/10 46/116/10
f 40/118/8 48/208/8 47/119/8
f 40/121/4 36/209/4 46/122/4
f 35/124/7 45/210/7 46/125/7
f 50/127/9 51/211/9 52/128/9
f 56/130/10 55/212/10 54/131/10
f 53/133/10 54/213/10 60/134/10
f 54/136/3 55/214/3 51/137/3
f 55/139/3 63/215/3 61/140/3
f 49/142/4 52/216/4 56/143/4
f 59/145/8 60/217/8 58/146/8
f 50/148/3 58/218/3 60/149/3
f 53/151/4 59/219/4 57/152/4
f 50/154/9 49/220/9 57/155/9
f 63/157/7 64/221/7 62/158/7
f 56/160/10 64/222/10 63/161/10
f 56/163/4 52/223/4 62/164/4
f 51/166/9 61/224/9 62/167/9
usemtl Material.001
f 65/225/4 80/226/4 88/227/4
f 85/228/4 73/229/4 72/230/4
f 83/231/4 80/226/4 81/232/4
f 73/229/4 87/233/4 81/232/4
f 77/234/3 66/235/3 67/236/3
f 70/237/3 78/238/3 71/239/3
f 76/240/3 75/241/3 74/242/3
f 81/232/4 72/230/4 73/229/4
f 68/243/3 78/238/3 76/240/3
f 76/240/3 79/244/3 77/234/3
f 84/245/6 92/246/6 95/247/6
f 98/248/2 84/249/2 95/250/2
f 101/251/6 73/252/6 98/253/6
f 69/254/2 104/255/2 99/256/2
f 81/257/5 102/258/5 107/259/5
f 76/260/2 110/261/2 105/262/2
f 113/263/5 89/264/5 108/265/5
f 111/266/1 77/267/1 116/268/1
f 119/269/1 66/270/1 122/271/1
f 88/272/5 114/273/5 117/274/5
f 125/275/6 65/276/6 120/277/6
f 85/278/1 125/279/1 92/280/1
f 90/281/1 79/282/1 70/283/1
f 91/284/1 123/285/1 90/286/1
f 92/287/1 124/288/1 91/289/1
f 79/290/6 122/291/6 66/292/6
f 123/293/6 121/294/6 122/295/6
f 124/296/6 120/297/6 121/298/6
f 119/299/5 77/300/5 67/301/5
f 118/302/5 116/303/5 119/304/5
f 117/305/5 115/306/5 118/307/5
f 88/308/1 120/309/1 65/310/1
f 117/311/1 121/312/1 120/313/1
f 118/314/1 122/315/1 121/316/1
f 80/317/1 113/318/1 114/319/1
f 114/320/1 112/321/1 115/322/1
f 112/323/1 116/324/1 115/325/1
f 74/326/5 111/327/5 110/328/5
f 111/329/5 109/330/5 110/331/5
f 112/332/5 108/333/5 109/334/5
f 107/335/2 89/336/2 81/337/2
f 106/338/2 108/339/2 107/340/2
f 105/341/2 109/342/2 106/343/2
f 105/344/5 68/345/5 76/346/5
f 105/347/5 103/348/5 104/349/5
f 106/350/5 102/351/5 103/352/5
f 101/353/2 87/354/2 86/355/2
f 100/356/2 102/357/2 101/358/2
f 99/359/2 103/360/2 100/361/2
f 69/362/6 96/363/6 78/364/6
f 99/365/6 97/366/6 96/367/6
f 100/368/6 98/369/6 97/370/6
f 78/371/2 93/372/2 71/373/2
f 96/374/2 94/375/2 93/376/2
f 97/377/2 95/378/2 94/379/2
f 93/380/6 70/381/6 71/382/6
f 94/383/6 90/384/6 93/385/6
f 95/386/6 91/387/6 94/388/6
f 65/225/4 72/230/4 80/226/4
f 85/228/4 84/389/4 73/229/4
f 83/231/4 82/390/4 80/226/4
f 73/229/4 86/391/4 87/233/4
f 77/234/3 79/244/3 66/235/3
f 70/237/3 79/244/3 78/238/3
f 76/240/3 77/234/3 75/241/3
f 81/232/4 80/226/4 72/230/4
f 68/243/3 69/392/3 78/238/3
f 76/240/3 78/238/3 79/244/3
f 84/245/6 85/393/6 92/246/6
f 98/248/2 73/394/2 84/249/2
f 101/251/6 86/395/6 73/252/6
f 69/254/2 68/396/2 104/255/2
f 81/257/5 87/397/5 102/258/5
f 76/260/2 74/398/2 110/261/2
f 113/263/5 82/399/5 89/264/5
f 111/266/1 75/400/1 77/267/1
f 119/269/1 67/401/1 66/270/1
f 88/272/5 80/402/5 114/273/5
f 125/275/6 72/403/6 65/276/6
f 85/278/1 72/404/1 125/279/1
f 90/281/1 123/405/1 79/282/1
f 91/284/1 124/406/1 123/285/1
f 92/287/1 125/407/1 124/288/1
f 79/290/6 123/408/6 122/291/6
f 123/293/6 124/409/6 121/294/6
f 124/296/6 125/410/6 120/297/6
f 119/299/5 116/411/5 77/300/5
f 118/302/5 115/412/5 116/303/5
f 117/305/5 114/413/5 115/306/5
f 88/308/1 117/414/1 120/309/1
f 117/311/1 118/415/1 121/312/1
f 118/314/1 119/416/1 122/315/1
f 80/317/1 82/417/1 113/318/1
f 114/320/1 113/418/1 112/321/1
f 112/323/1 111/419/1 116/324/1
f 74/326/5 75/420/5 111/327/5
f 111/329/5 112/421/5 109/330/5
f 112/332/5 113/422/5 108/333/5
f 107/335/2 108/423/2 89/336/2
f 106/338/2 109/424/2 108/339/2
f 105/341/2 110/425/2 109/342/2
f 105/344/5 104/426/5 68/345/5
f 105/347/5 106/427/5 103/348/5
f 106/350/5 107/428/5 102/351/5
f 101/353/2 102/429/2 87/354/2
f 100/356/2 103/430/2 102/357/2
f 99/359/2 104/431/2 103/360/2
f 69/362/6 99/432/6 96/363/6
f 99/365/6 100/433/6 97/366/6
f 100/368/6 101/434/6 98/369/6
f 78/371/2 96/435/2 93/372/2
f 96/374/2 97/436/2 94/375/2
f 97/377/2 98/437/2 95/378/2
f 93/380/6 90/438/6 70/381/6
f 94/383/6 91/439/6 90/384/6
f 95/386/6 92/440/6 91/387/6
