# Blender v2.78 (sub 0) OBJ File: 'waterwheel.blend'
# www.blender.org
mtllib plank.mtl
o Cube
v 1.000000 -0.062500 -1.000000
v 1.000000 -0.062500 1.000000
v -1.000000 -0.062500 1.000000
v -1.000000 -0.062500 -1.000000
v 1.000001 0.062500 -1.000000
v 1.000000 0.062500 1.000000
v -1.000000 0.062500 0.999999
v -1.000000 0.062500 -1.000000
v 2.000000 -0.062500 -1.000000
v 2.000000 -0.062500 1.000000
v 2.000001 0.062500 -0.999999
v 1.999999 0.062500 1.000001
v -2.000000 -0.062500 1.000000
v -2.000000 -0.062500 -1.000001
v -2.000000 0.062500 0.999999
v -2.000000 0.062500 -1.000000
vt 0.9999 0.9999
vt 0.0001 0.0001
vt 0.9999 0.0001
vt 0.9999 0.0001
vt 0.0001 0.9999
vt 0.0001 0.0001
vt 0.5000 0.0001
vt 0.0001 0.9999
vt 0.0001 0.0001
vt 0.9999 0.1251
vt 0.0001 0.0626
vt 0.9999 0.0626
vt 0.5000 0.1878
vt 0.0001 0.1253
vt 0.5000 0.1253
vt 0.9999 0.1251
vt 0.0001 0.0626
vt 0.9999 0.0626
vt 1.0000 0.0625
vt 0.0000 0.0000
vt 1.0000 0.0000
vt 0.0001 0.0627
vt 0.5000 0.1252
vt 0.0001 0.1252
vt 0.0001 0.1253
vt 0.5000 0.1878
vt 0.0001 0.1878
vt -0.0000 0.0001
vt 0.4999 0.9999
vt -0.0000 0.9999
vt 0.0000 0.0000
vt 1.0000 0.0625
vt 0.0000 0.0625
vt 0.0001 0.0001
vt 0.5000 0.9999
vt 0.0001 0.9999
vt 0.5000 0.0627
vt 0.0001 0.1252
vt 0.0001 0.0627
vt 0.5000 1.0000
vt 0.0000 0.0001
vt 0.5000 0.0001
vt 0.0001 0.9999
vt 0.9999 0.9999
vt 0.5000 0.9999
vt 0.0001 0.1251
vt 0.0001 0.1878
vt 0.0001 0.1251
vt 0.0000 0.0625
vt 0.5000 0.0627
vt 0.5000 0.1253
vt 0.4999 0.0001
vt 1.0000 0.0000
vt 0.5000 0.0001
vt 0.5000 0.1252
vt 0.0000 1.0000
vn 0.0000 -1.0000 0.0000
vn 0.0000 1.0000 0.0000
vn -0.0000 -0.0000 1.0000
vn 0.0000 0.0000 -1.0000
vn 1.0000 -0.0000 0.0000
vn -1.0000 0.0000 -0.0000
usemtl Material
s off
f 2/1/1 4/2/1 1/3/1
f 8/4/2 6/5/2 5/6/2
f 5/7/2 12/8/2 11/9/2
f 6/10/3 3/11/3 2/12/3
f 7/13/3 13/14/3 3/15/3
f 1/16/4 8/17/4 5/18/4
f 11/19/5 10/20/5 9/21/5
f 2/22/3 12/23/3 6/24/3
f 5/25/4 9/26/4 1/27/4
f 1/28/1 10/29/1 2/30/1
f 15/31/6 14/32/6 13/33/6
f 8/34/2 15/35/2 7/36/2
f 8/37/4 14/38/4 16/39/4
f 3/40/1 14/41/1 4/42/1
f 2/1/1 3/43/1 4/2/1
f 8/4/2 7/44/2 6/5/2
f 5/7/2 6/45/2 12/8/2
f 6/10/3 7/46/3 3/11/3
f 7/13/3 15/47/3 13/14/3
f 1/16/4 4/48/4 8/17/4
f 11/19/5 12/49/5 10/20/5
f 2/22/3 10/50/3 12/23/3
f 5/25/4 11/51/4 9/26/4
f 1/28/1 9/52/1 10/29/1
f 15/31/6 16/53/6 14/32/6
f 8/34/2 16/54/2 15/35/2
f 8/37/4 4/55/4 14/38/4
f 3/40/1 13/56/1 14/41/1
