mtllib basic_materials.mtl
o Cube.004_Cube.000
v -0.750000 0.250000 0.250000
v 0.750000 0.250000 0.250000
v -0.750000 0.250000 -0.250000
v 0.750000 0.250000 -0.250000
v -0.750000 -0.250000 0.250000
v 0.750000 -0.250000 0.250000
v -0.750000 -0.250000 -0.250000
v 0.750000 -0.250000 -0.250000
vt 0.2500 0.0000
vt 0.2500 0.7499
vt 0.0000 0.7499
vt 0.0000 0.0000
vt 0.2500 0.0000
vt 0.2500 0.7499
vt 0.0000 0.7499
vt 0.0000 0.0000
vt 0.2500 0.0000
vt 0.2500 0.7499
vt 0.0000 0.7499
vt 0.0000 0.0000
vt 0.2500 0.0000
vt 0.2500 0.7499
vt 0.0000 0.7499
vt 0.0000 0.0000
vt 0.3750 0.3750
vt 0.6250 0.3750
vt 0.6250 0.6250
vt 0.3750 0.6250
vt 0.6250 0.6250
vt 0.3750 0.6250
vt 0.3750 0.3750
vt 0.6250 0.3750
vn -0.0000 1.0000 0.0000
vn 0.0000 0.0000 -1.0000
vn 0.0000 -1.0000 0.0000
vn -0.0000 0.0000 1.0000
vn -1.0000 0.0000 0.0000
vn 1.0000 0.0000 0.0000
usemtl Log
f 1/1/1 2/2/1 4/3/1 3/4/1
f 3/5/2 4/6/2 8/7/2 7/8/2
f 7/9/3 8/10/3 6/11/3 5/12/3
f 5/13/4 6/14/4 2/15/4 1/16/4
f 3/17/5 7/18/5 5/19/5 1/20/5
f 8/21/6 4/22/6 2/23/6 6/24/6
