mtllib basic_materials.mtl
o Cube.007_Cube.001
v -1.000000 0.342223 1.000000
v -1.000000 0.342223 -1.000000
v 1.000000 0.342223 1.000000
v 1.000000 0.342223 -1.000000
v -1.000000 -1.000000 1.000000
v -1.000000 -1.000000 -1.000000
v 1.000000 -1.000000 -1.000000
v 1.000000 -1.000000 1.000000
v -0.922288 0.342223 0.922288
v -0.922288 0.342223 -0.922288
v 0.922288 0.342223 -0.922288
v 0.922288 0.342223 0.922288
v -0.922288 -0.908082 0.922288
v -0.922288 -0.908082 -0.922288
v 0.922288 -0.908082 -0.922288
v 0.922288 -0.908082 0.922288
v -0.125000 0.674063 -0.062500
v 0.062500 0.674063 -0.125000
v -0.062188 0.674063 -0.125000
vt 0.0001 0.6711
vt 0.0001 0.0001
vt 0.9999 0.0001
vt 0.9999 0.6711
vt 0.0001 0.6711
vt 0.0001 0.0001
vt 0.9999 0.0001
vt 0.9999 0.6711
vt 0.0001 0.6711
vt 0.0001 0.0001
vt 0.9999 0.0001
vt 0.9999 0.6711
vt 0.0001 0.6711
vt 0.0001 0.0001
vt 0.9999 0.0001
vt 0.9999 0.6711
vt 0.9999 0.9999
vt 0.0001 0.9999
vt 0.0389 0.9611
vt 0.9611 0.9611
vt 0.9999 0.9999
vt 0.0001 0.9999
vt 0.0001 0.0001
vt 0.9999 0.0001
vt 0.9999 0.6778
vt 0.0001 0.6778
vt 0.0001 0.0001
vt 0.9999 0.0001
vt 0.9611 0.0389
vt 0.0389 0.0389
vt 0.9999 0.9999
vt 0.0001 0.9999
vt 0.0001 0.0001
vt 0.9999 0.0001
vt 0.9999 0.6778
vt 0.0001 0.6778
vt 0.0001 0.0001
vt 0.9999 0.6778
vt 0.0001 0.6778
vt 0.9999 0.0001
vt 0.9999 0.6778
vt 0.0001 0.6778
vt 0.0001 0.0001
vt 0.9999 0.0001
vn -1.0000 0.0000 0.0000
vn 0.0000 0.0000 -1.0000
vn 1.0000 0.0000 0.0000
vn 0.0000 0.0000 1.0000
vn 0.0000 1.0000 0.0000
vn 0.0000 -1.0000 0.0000
usemtl Planks
f 5/1/1 1/2/1 2/3/1 6/4/1
f 6/5/2 2/6/2 4/7/2 7/8/2
f 7/9/3 4/10/3 3/11/3 8/12/3
f 8/13/4 3/14/4 1/15/4 5/16/4
f 4/17/5 2/18/5 10/19/5 11/20/5
f 8/21/6 5/22/6 6/23/6 7/24/6
f 11/25/4 10/26/4 14/27/4 15/28/4
f 3/11/5 4/17/5 11/20/5 12/29/5
f 2/18/5 1/2/5 9/30/5 10/19/5
f 1/2/5 3/11/5 12/29/5 9/30/5
f 15/31/5 14/32/5 13/33/5 16/34/5
f 12/35/1 11/36/1 15/37/1 16/34/1
f 10/38/3 9/39/3 13/33/3 14/40/3
f 9/41/2 12/42/2 16/43/2 13/44/2
