mtllib basic_materials.mtl
o Gear.002
v 0.126929 0.191353 0.000000
v 0.124490 0.191353 -0.024763
v 0.117267 0.191353 -0.048574
v 0.105537 0.191353 -0.070518
v 0.686950 0.191353 0.000000
v 0.673750 0.191353 -0.134017
v 0.634659 0.191353 -0.262884
v 0.571178 0.191353 -0.381649
v 0.748611 0.191353 -0.148908
v 0.705176 0.191353 -0.292094
v 0.634642 0.191353 -0.424054
v 0.823473 0.191353 -0.163799
v 0.775694 0.191353 -0.321303
v 0.698106 0.191353 -0.466460
v 0.126929 0.634054 0.000000
v 0.124490 0.634054 -0.024763
v 0.117267 0.634054 -0.048574
v 0.105537 0.634054 -0.070518
v 0.686950 0.634054 0.000000
v 0.673750 0.634054 -0.134017
v 0.634659 0.634054 -0.262884
v 0.571178 0.634054 -0.381649
v 0.748611 0.634054 -0.148908
v 0.705176 0.634054 -0.292094
v 0.634642 0.634054 -0.424054
v 0.823473 0.634054 -0.163799
v 0.775694 0.634054 -0.321303
v 0.698106 0.634054 -0.466460
v 0.089752 0.191353 -0.089752
v 0.070518 0.191353 -0.105537
v 0.048574 0.191353 -0.117267
v 0.024763 0.191353 -0.124490
v 0.485747 0.191353 -0.485747
v 0.381649 0.191353 -0.571178
v 0.262884 0.191353 -0.634659
v 0.134017 0.191353 -0.673750
v 0.424054 0.191353 -0.634642
v 0.292094 0.191353 -0.705176
v 0.148908 0.191353 -0.748611
v 0.466460 0.191353 -0.698106
v 0.321303 0.191353 -0.775694
v 0.163799 0.191353 -0.823473
v 0.089752 0.634054 -0.089752
v 0.070518 0.634054 -0.105537
v 0.048574 0.634054 -0.117267
v 0.024763 0.634054 -0.124490
v 0.485747 0.634054 -0.485747
v 0.381649 0.634054 -0.571178
v 0.262884 0.634054 -0.634659
v 0.134017 0.634054 -0.673750
v 0.424054 0.634054 -0.634642
v 0.292094 0.634054 -0.705176
v 0.148908 0.634054 -0.748611
v 0.466460 0.634054 -0.698106
v 0.321303 0.634054 -0.775694
v 0.163799 0.634054 -0.823473
v 0.000000 0.191353 -0.126929
v -0.024763 0.191353 -0.124490
v -0.048574 0.191353 -0.117267
v -0.070518 0.191353 -0.105537
v 0.000000 0.191353 -0.686950
v -0.134017 0.191353 -0.673750
v -0.262884 0.191353 -0.634659
v -0.381649 0.191353 -0.571178
v -0.148908 0.191353 -0.748611
v -0.292094 0.191353 -0.705176
v -0.424054 0.191353 -0.634642
v -0.163799 0.191353 -0.823473
v -0.321303 0.191353 -0.775694
v -0.466460 0.191353 -0.698106
v 0.000000 0.634054 -0.126929
v -0.024763 0.634054 -0.124490
v -0.048574 0.634054 -0.117267
v -0.070518 0.634054 -0.105537
v 0.000000 0.634054 -0.686950
v -0.134017 0.634054 -0.673750
v -0.262884 0.634054 -0.634659
v -0.381649 0.634054 -0.571178
v -0.148908 0.634054 -0.748611
v -0.292094 0.634054 -0.705176
v -0.424054 0.634054 -0.634642
v -0.163799 0.634054 -0.823473
v -0.321303 0.634054 -0.775694
v -0.466460 0.634054 -0.698106
v -0.089752 0.191353 -0.089752
v -0.105537 0.191353 -0.070518
v -0.117267 0.191353 -0.048574
v -0.124490 0.191353 -0.024763
v -0.485747 0.191353 -0.485747
v -0.571178 0.191353 -0.381649
v -0.634659 0.191353 -0.262884
v -0.673750 0.191353 -0.134017
v -0.634642 0.191353 -0.424054
v -0.705176 0.191353 -0.292094
v -0.748611 0.191353 -0.148908
v -0.698106 0.191353 -0.466460
v -0.775694 0.191353 -0.321303
v -0.823473 0.191353 -0.163799
v -0.089752 0.634054 -0.089752
v -0.105537 0.634054 -0.070518
v -0.117267 0.634054 -0.048574
v -0.124490 0.634054 -0.024763
v -0.485747 0.634054 -0.485747
v -0.571178 0.634054 -0.381649
v -0.634659 0.634054 -0.262884
v -0.673750 0.634054 -0.134017
v -0.634642 0.634054 -0.424054
v -0.705176 0.634054 -0.292094
v -0.748611 0.634054 -0.148908
v -0.698106 0.634054 -0.466460
v -0.775694 0.634054 -0.321303
v -0.823473 0.634054 -0.163799
v -0.126929 0.191353 -0.000000
v -0.124490 0.191353 0.024763
v -0.117267 0.191353 0.048574
v -0.105537 0.191353 0.070518
v -0.686950 0.191353 -0.000000
v -0.673750 0.191353 0.134017
v -0.634659 0.191353 0.262884
v -0.571178 0.191353 0.381649
v -0.748611 0.191353 0.148908
v -0.705176 0.191353 0.292094
v -0.634642 0.191353 0.424054
v -0.823473 0.191353 0.163799
v -0.775694 0.191353 0.321303
v -0.698106 0.191353 0.466460
v -0.126929 0.634054 -0.000000
v -0.124490 0.634054 0.024763
v -0.117267 0.634054 0.048574
v -0.105537 0.634054 0.070518
v -0.686950 0.634054 -0.000000
v -0.673750 0.634054 0.134017
v -0.634659 0.634054 0.262884
v -0.571178 0.634054 0.381649
v -0.748611 0.634054 0.148908
v -0.705176 0.634054 0.292094
v -0.634642 0.634054 0.424054
v -0.823473 0.634054 0.163799
v -0.775694 0.634054 0.321303
v -0.698106 0.634054 0.466460
v -0.089752 0.191353 0.089752
v -0.070518 0.191353 0.105537
v -0.048574 0.191353 0.117267
v -0.024763 0.191353 0.124490
v -0.485747 0.191353 0.485747
v -0.381649 0.191353 0.571178
v -0.262884 0.191353 0.634659
v -0.134017 0.191353 0.673750
v -0.424054 0.191353 0.634642
v -0.292094 0.191353 0.705176
v -0.148908 0.191353 0.748611
v -0.466460 0.191353 0.698106
v -0.321303 0.191353 0.775694
v -0.163799 0.191353 0.823473
v -0.089752 0.634054 0.089752
v -0.070518 0.634054 0.105537
v -0.048574 0.634054 0.117267
v -0.024763 0.634054 0.124490
v -0.485747 0.634054 0.485747
v -0.381649 0.634054 0.571178
v -0.262884 0.634054 0.634659
v -0.134017 0.634054 0.673750
v -0.424054 0.634054 0.634642
v -0.292094 0.634054 0.705176
v -0.148908 0.634054 0.748611
v -0.466460 0.634054 0.698106
v -0.321303 0.634054 0.775694
v -0.163799 0.634054 0.823473
v -0.000000 0.191353 0.126929
v 0.024763 0.191353 0.124490
v 0.048574 0.191353 0.117267
v 0.070518 0.191353 0.105537
v -0.000000 0.191353 0.686950
v 0.134017 0.191353 0.673750
v 0.262884 0.191353 0.634659
v 0.381649 0.191353 0.571178
v 0.148908 0.191353 0.748611
v 0.292094 0.191353 0.705176
v 0.424054 0.191353 0.634642
v 0.163799 0.191353 0.823473
v 0.321303 0.191353 0.775694
v 0.466460 0.191353 0.698106
v -0.000000 0.634054 0.126929
v 0.024763 0.634054 0.124490
v 0.048574 0.634054 0.117267
v 0.070518 0.634054 0.105537
v -0.000000 0.634054 0.686950
v 0.134017 0.634054 0.673750
v 0.262884 0.634054 0.634659
v 0.381649 0.634054 0.571178
v 0.148908 0.634054 0.748611
v 0.292094 0.634054 0.705176
v 0.424054 0.634054 0.634642
v 0.163799 0.634054 0.823473
v 0.321303 0.634054 0.775694
v 0.466460 0.634054 0.698106
v 0.089752 0.191353 0.089752
v 0.105537 0.191353 0.070518
v 0.117267 0.191353 0.048574
v 0.124490 0.191353 0.024763
v 0.485747 0.191353 0.485747
v 0.571178 0.191353 0.381649
v 0.634659 0.191353 0.262884
v 0.673750 0.191353 0.134017
v 0.634642 0.191353 0.424054
v 0.705176 0.191353 0.292094
v 0.748611 0.191353 0.148908
v 0.698106 0.191353 0.466460
v 0.775694 0.191353 0.321303
v 0.823473 0.191353 0.163799
v 0.089752 0.634054 0.089752
v 0.105537 0.634054 0.070518
v 0.117267 0.634054 0.048574
v 0.124490 0.634054 0.024763
v 0.485747 0.634054 0.485747
v 0.571178 0.634054 0.381649
v 0.634659 0.634054 0.262884
v 0.673750 0.634054 0.134017
v 0.634642 0.634054 0.424054
v 0.705176 0.634054 0.292094
v 0.748611 0.634054 0.148908
v 0.698106 0.634054 0.466460
v 0.775694 0.634054 0.321303
v 0.823473 0.634054 0.163799
vt 0.8933 0.3807
vt 0.5727 0.4780
vt 0.5670 0.4642
vt 0.8625 0.3063
vt 0.5587 0.4518
vt 0.8177 0.2393
vt 0.5482 0.4413
vt 0.7607 0.1823
vt 0.9027 0.2847
vt 0.8530 0.2103
vt 0.7897 0.1470
vt 0.9430 0.2632
vt 0.8883 0.1813
vt 0.8187 0.1117
vt 0.5771 0.5000
vt 0.9170 0.5000
vt 0.9090 0.5814
vt 0.5756 0.5150
vt 0.8853 0.6596
vt 0.5712 0.5295
vt 0.8467 0.7317
vt 0.5641 0.5428
vt 0.9545 0.5904
vt 0.9281 0.6773
vt 0.8853 0.7574
vt 0.9999 0.5994
vt 0.9709 0.6951
vt 0.9238 0.7832
vt 0.5000 0.2449
vt 0.5000 0.0000
vt 0.5745 0.0000
vt 0.5745 0.2449
vt 0.6167 0.0000
vt 0.6167 0.2449
vt 0.6589 0.0000
vt 0.6589 0.2449
vt 0.7500 0.0000
vt 0.7500 0.2449
vt 0.8410 0.0000
vt 0.8410 0.2449
vt 0.8832 0.0000
vt 0.8832 0.2449
vt 0.9255 0.0000
vt 0.9255 0.2449
vt 0.6937 0.1375
vt 0.5358 0.4330
vt 0.5220 0.4273
vt 0.6193 0.1067
vt 0.5074 0.4244
vt 0.5403 0.0910
vt 0.4926 0.4244
vt 0.4597 0.0910
vt 0.6326 0.0630
vt 0.5448 0.0455
vt 0.4552 0.0455
vt 0.6458 0.0193
vt 0.5492 0.0001
vt 0.4508 0.0001
vt 0.5545 0.5545
vt 0.7949 0.7949
vt 0.7317 0.8467
vt 0.5428 0.5641
vt 0.6596 0.8853
vt 0.5295 0.5712
vt 0.5814 0.9090
vt 0.5150 0.5756
vt 0.7574 0.8853
vt 0.6773 0.9281
vt 0.5904 0.9545
vt 0.7832 0.9238
vt 0.6951 0.9709
vt 0.5994 0.9999
vt 1.0000 0.0000
vt 1.0000 0.2449
vt 0.9255 0.2449
vt 0.9255 0.0000
vt 0.8832 0.2449
vt 0.8832 0.0000
vt 0.8410 0.2449
vt 0.8410 0.0000
vt 0.7500 0.2449
vt 0.7500 0.0000
vt 0.6589 0.2449
vt 0.6589 0.0000
vt 0.6167 0.2449
vt 0.6167 0.0000
vt 0.5745 0.2449
vt 0.5745 0.0000
vt 1.0000 0.0000
vt 1.0000 0.2449
vt 0.3807 0.1067
vt 0.4780 0.4273
vt 0.4642 0.4330
vt 0.3063 0.1375
vt 0.4518 0.4413
vt 0.2393 0.1823
vt 0.4413 0.4518
vt 0.1823 0.2393
vt 0.2847 0.0973
vt 0.2103 0.1470
vt 0.1470 0.2103
vt 0.2632 0.0570
vt 0.1813 0.1117
vt 0.1117 0.1813
vt 0.5000 0.5771
vt 0.5000 0.9170
vt 0.4186 0.9090
vt 0.4850 0.5756
vt 0.3404 0.8853
vt 0.4705 0.5712
vt 0.2683 0.8467
vt 0.4572 0.5641
vt 0.4096 0.9545
vt 0.3227 0.9281
vt 0.2426 0.8853
vt 0.4006 0.9999
vt 0.3049 0.9709
vt 0.2168 0.9238
vt 0.5000 0.0000
vt 0.5000 0.2449
vt 0.4255 0.2449
vt 0.4255 0.0000
vt 0.3833 0.2449
vt 0.3833 0.0000
vt 0.3411 0.2449
vt 0.3411 0.0000
vt 0.2500 0.2449
vt 0.2500 0.0000
vt 0.1590 0.2449
vt 0.1590 0.0000
vt 0.1168 0.2449
vt 0.1168 0.0000
vt 0.0745 0.2449
vt 0.0745 0.0000
vt 0.1375 0.3063
vt 0.4330 0.4642
vt 0.4273 0.4780
vt 0.1067 0.3807
vt 0.4244 0.4926
vt 0.0910 0.4597
vt 0.4244 0.5074
vt 0.0910 0.5403
vt 0.0630 0.3674
vt 0.0455 0.4552
vt 0.0455 0.5448
vt 0.0193 0.3542
vt 0.0001 0.4508
vt 0.0001 0.5492
vt 0.4455 0.5545
vt 0.2051 0.7949
vt 0.1533 0.7317
vt 0.4359 0.5428
vt 0.1147 0.6596
vt 0.4288 0.5295
vt 0.0910 0.5814
vt 0.4244 0.5150
vt 0.1147 0.7574
vt 0.0719 0.6773
vt 0.0455 0.5904
vt 0.0762 0.7832
vt 0.0291 0.6951
vt 0.0001 0.5994
vt 1.0000 0.0000
vt 1.0000 0.2449
vt 0.9255 0.2449
vt 0.9255 0.0000
vt 0.8832 0.2449
vt 0.8832 0.0000
vt 0.8410 0.2449
vt 0.8410 0.0000
vt 0.7500 0.2449
vt 0.7500 0.0000
vt 0.6589 0.2449
vt 0.6589 0.0000
vt 0.6167 0.2449
vt 0.6167 0.0000
vt 0.5745 0.2449
vt 0.5745 0.0000
vt 0.0000 0.2449
vt 0.0000 0.0000
vt 0.1067 0.6193
vt 0.4273 0.5220
vt 0.4330 0.5358
vt 0.1375 0.6937
vt 0.4413 0.5482
vt 0.1823 0.7607
vt 0.4518 0.5587
vt 0.2393 0.8177
vt 0.0973 0.7153
vt 0.1470 0.7897
vt 0.2103 0.8530
vt 0.0570 0.7368
vt 0.1117 0.8187
vt 0.1813 0.8883
vt 0.4229 0.5000
vt 0.0830 0.5000
vt 0.0910 0.4186
vt 0.4244 0.4850
vt 0.1147 0.3404
vt 0.4288 0.4705
vt 0.1533 0.2683
vt 0.4359 0.4572
vt 0.0455 0.4096
vt 0.0719 0.3227
vt 0.1147 0.2426
vt 0.0001 0.4006
vt 0.0291 0.3049
vt 0.0762 0.2168
vt 0.5000 0.0000
vt 0.5000 0.2449
vt 0.4255 0.2449
vt 0.4255 0.0000
vt 0.3833 0.2449
vt 0.3833 0.0000
vt 0.3411 0.2449
vt 0.3411 0.0000
vt 0.2500 0.2449
vt 0.2500 0.0000
vt 0.1590 0.2449
vt 0.1590 0.0000
vt 0.1168 0.2449
vt 0.1168 0.0000
vt 0.0745 0.2449
vt 0.0745 0.0000
vt 0.3063 0.8625
vt 0.4642 0.5670
vt 0.4780 0.5727
vt 0.3807 0.8933
vt 0.4926 0.5756
vt 0.4597 0.9090
vt 0.5074 0.5756
vt 0.5403 0.9090
vt 0.3674 0.9370
vt 0.4552 0.9545
vt 0.5448 0.9545
vt 0.3542 0.9807
vt 0.4508 0.9999
vt 0.5492 0.9999
vt 0.4455 0.4455
vt 0.2051 0.2051
vt 0.2683 0.1533
vt 0.4572 0.4359
vt 0.3404 0.1147
vt 0.4705 0.4288
vt 0.4186 0.0910
vt 0.4850 0.4244
vt 0.2426 0.1147
vt 0.3227 0.0719
vt 0.4096 0.0455
vt 0.2168 0.0762
vt 0.3049 0.0291
vt 0.4006 0.0001
vt 0.0000 0.2449
vt 0.0000 0.0000
vt 0.0745 0.0000
vt 0.0745 0.2449
vt 0.1168 0.0000
vt 0.1168 0.2449
vt 0.1590 0.0000
vt 0.1590 0.2449
vt 0.2500 0.0000
vt 0.2500 0.2449
vt 0.3411 0.0000
vt 0.3411 0.2449
vt 0.3833 0.0000
vt 0.3833 0.2449
vt 0.4255 0.0000
vt 0.4255 0.2449
vt 0.0000 0.2449
vt 0.0000 0.0000
vt 0.6193 0.8933
vt 0.5220 0.5727
vt 0.5358 0.5670
vt 0.6937 0.8625
vt 0.5482 0.5587
vt 0.7607 0.8177
vt 0.5587 0.5482
vt 0.8177 0.7607
vt 0.7153 0.9027
vt 0.7897 0.8530
vt 0.8530 0.7897
vt 0.7368 0.9430
vt 0.8187 0.8883
vt 0.8883 0.8187
vt 0.5000 0.4229
vt 0.5000 0.0830
vt 0.5814 0.0910
vt 0.5150 0.4244
vt 0.6596 0.1147
vt 0.5295 0.4288
vt 0.7317 0.1533
vt 0.5428 0.4359
vt 0.5904 0.0455
vt 0.6773 0.0719
vt 0.7574 0.1147
vt 0.5994 0.0001
vt 0.6951 0.0291
vt 0.7832 0.0762
vt 0.5000 0.2449
vt 0.5000 0.0000
vt 0.5745 0.0000
vt 0.5745 0.2449
vt 0.6167 0.0000
vt 0.6167 0.2449
vt 0.6589 0.0001
vt 0.6589 0.2449
vt 0.7500 0.0001
vt 0.7500 0.2449
vt 0.8410 0.0001
vt 0.8410 0.2449
vt 0.8832 0.0001
vt 0.8832 0.2449
vt 0.9255 0.0001
vt 0.9255 0.2449
vt 0.8625 0.6937
vt 0.5670 0.5358
vt 0.5727 0.5220
vt 0.8933 0.6193
vt 0.5756 0.5074
vt 0.9090 0.5403
vt 0.5756 0.4926
vt 0.9090 0.4597
vt 0.9370 0.6326
vt 0.9545 0.5448
vt 0.9545 0.4552
vt 0.9807 0.6458
vt 0.9999 0.5492
vt 0.9999 0.4508
vt 0.5545 0.4455
vt 0.7949 0.2051
vt 0.8467 0.2683
vt 0.5641 0.4572
vt 0.8853 0.3404
vt 0.5712 0.4705
vt 0.9090 0.4186
vt 0.5756 0.4850
vt 0.8853 0.2426
vt 0.9281 0.3227
vt 0.9545 0.4096
vt 0.9238 0.2168
vt 0.9709 0.3049
vt 0.9999 0.4006
vt 0.0000 0.2449
vt 0.0000 0.0001
vt 0.0745 0.0001
vt 0.0745 0.2449
vt 0.1168 0.0001
vt 0.1168 0.2449
vt 0.1590 0.0001
vt 0.1590 0.2449
vt 0.2500 0.0000
vt 0.2500 0.2449
vt 0.3411 0.0000
vt 0.3411 0.2449
vt 0.3833 0.0000
vt 0.3833 0.2449
vt 0.4255 0.0000
vt 0.4255 0.2449
vt 1.0000 0.0001
vt 0.9999 0.2449
vt 0.5624 0.5142
vt 0.5625 0.2501
vt 0.6250 0.2502
vt 0.6249 0.5142
vt 0.6875 0.2502
vt 0.6874 0.5143
vt 0.7500 0.2502
vt 0.7499 0.5143
vt 0.7500 0.2500
vt 0.7500 0.5142
vt 0.6875 0.5142
vt 0.6875 0.2500
vt 0.6250 0.5142
vt 0.6250 0.2500
vt 0.5625 0.5142
vt 0.5625 0.2500
vt 0.5000 0.5142
vt 0.5000 0.2500
vt 0.4375 0.5142
vt 0.4375 0.2500
vt 0.3750 0.5142
vt 0.3750 0.2500
vt 0.3125 0.5142
vt 0.3125 0.2500
vt 0.2500 0.5142
vt 0.2500 0.2500
vt 0.7500 0.2500
vt 0.7500 0.5142
vt 0.6875 0.5142
vt 0.6875 0.2500
vt 0.6250 0.5142
vt 0.6250 0.2500
vt 0.5625 0.5142
vt 0.5625 0.2500
vt 0.5000 0.5142
vt 0.5000 0.2500
vt 0.4375 0.5142
vt 0.4375 0.2500
vt 0.3750 0.5142
vt 0.3750 0.2500
vt 0.3125 0.5142
vt 0.3125 0.2500
vt 0.2500 0.5142
vt 0.2500 0.2500
vt 0.5142 0.7500
vt 0.2500 0.7500
vt 0.2500 0.6875
vt 0.5142 0.6875
vt 0.2500 0.6250
vt 0.5142 0.6250
vt 0.2500 0.5625
vt 0.5142 0.5625
vt 0.2500 0.5000
vt 0.5142 0.5000
vt 0.2500 0.4375
vt 0.5142 0.4375
vt 0.2500 0.3750
vt 0.5142 0.3750
vt 0.2500 0.3125
vt 0.5142 0.3125
vt 0.2500 0.2500
vt 0.5142 0.2500
vt 0.2500 0.5141
vt 0.2501 0.2500
vt 0.3126 0.2501
vt 0.3125 0.5141
vt 0.3751 0.2501
vt 0.3750 0.5142
vt 0.4376 0.2501
vt 0.4375 0.5142
vt 0.5000 0.2501
vt 0.5000 0.5142
vn 0.0000 -1.0000 0.0000
vn 0.0000 1.0000 0.0000
vn 0.9952 0.0000 -0.0980
vn 0.1951 0.0000 0.9808
vn 0.9569 0.0000 -0.2903
vn 0.8819 0.0000 -0.4714
vn -0.5556 0.0000 -0.8315
vn 0.6344 0.0000 -0.7730
vn 0.8315 0.0000 0.5556
vn 0.4714 0.0000 -0.8819
vn 0.2903 0.0000 -0.9569
vn -0.9808 0.0000 -0.1951
vn 0.7730 0.0000 -0.6344
vn -0.0980 0.0000 -0.9952
vn 0.9808 0.0000 -0.1951
vn -0.2903 0.0000 -0.9569
vn -0.4714 0.0000 -0.8819
vn -0.8315 0.0000 0.5556
vn 0.0980 0.0000 -0.9952
vn -0.7730 0.0000 -0.6344
vn 0.5556 0.0000 -0.8315
vn -0.8819 0.0000 -0.4714
vn -0.9569 0.0000 -0.2903
vn -0.1951 0.0000 0.9808
vn -0.6344 0.0000 -0.7730
vn -0.9952 0.0000 0.0980
vn -0.1951 0.0000 -0.9808
vn -0.9569 0.0000 0.2903
vn -0.8819 0.0000 0.4714
vn 0.5556 0.0000 0.8315
vn -0.9952 0.0000 -0.0980
vn -0.6344 0.0000 0.7730
vn -0.8315 0.0000 -0.5556
vn -0.4714 0.0000 0.8819
vn -0.2903 0.0000 0.9569
vn 0.9808 0.0000 0.1951
vn -0.7730 0.0000 0.6344
vn 0.0980 0.0000 0.9952
vn -0.9808 0.0000 0.1951
vn 0.2903 0.0000 0.9569
vn 0.4714 0.0000 0.8819
vn 0.8315 0.0000 -0.5556
vn -0.0980 0.0000 0.9952
vn 0.7730 0.0000 0.6344
vn -0.5556 0.0000 0.8315
vn 0.8819 0.0000 0.4714
vn 0.9569 0.0000 0.2903
vn 0.1951 0.0000 -0.9808
vn 0.6344 0.0000 0.7730
vn 0.9952 0.0000 0.0980
usemtl Cobblestone
f 5/1/1 1/2/1 2/3/1 6/4/1
f 6/4/1 2/3/1 3/5/1 7/6/1
f 7/6/1 3/5/1 4/7/1 8/8/1
f 9/9/1 6/4/1 7/6/1 10/10/1
f 10/10/1 7/6/1 8/8/1 11/11/1
f 12/12/1 9/9/1 10/10/1 13/13/1
f 13/13/1 10/10/1 11/11/1 14/14/1
f 15/15/2 19/16/2 20/17/2 16/18/2
f 16/18/2 20/17/2 21/19/2 17/20/2
f 17/20/2 21/19/2 22/21/2 18/22/2
f 20/17/2 23/23/2 24/24/2 21/19/2
f 21/19/2 24/24/2 25/25/2 22/21/2
f 23/23/2 26/26/2 27/27/2 24/24/2
f 24/24/2 27/27/2 28/28/2 25/25/2
f 19/29/3 5/30/3 6/31/3 20/32/3
f 20/32/4 6/31/4 9/33/4 23/34/4
f 23/34/4 9/33/4 12/35/4 26/36/4
f 26/36/5 12/35/5 13/37/5 27/38/5
f 27/38/6 13/37/6 14/39/6 28/40/6
f 28/40/7 14/39/7 11/41/7 25/42/7
f 25/42/7 11/41/7 8/43/7 22/44/7
f 33/45/1 29/46/1 30/47/1 34/48/1
f 34/48/1 30/47/1 31/49/1 35/50/1
f 35/50/1 31/49/1 32/51/1 36/52/1
f 37/53/1 34/48/1 35/50/1 38/54/1
f 38/54/1 35/50/1 36/52/1 39/55/1
f 40/56/1 37/53/1 38/54/1 41/57/1
f 41/57/1 38/54/1 39/55/1 42/58/1
f 43/59/2 47/60/2 48/61/2 44/62/2
f 44/62/2 48/61/2 49/63/2 45/64/2
f 45/64/2 49/63/2 50/65/2 46/66/2
f 48/61/2 51/67/2 52/68/2 49/63/2
f 49/63/2 52/68/2 53/69/2 50/65/2
f 51/67/2 54/70/2 55/71/2 52/68/2
f 52/68/2 55/71/2 56/72/2 53/69/2
f 47/73/8 33/74/8 34/75/8 48/76/8
f 48/76/9 34/75/9 37/77/9 51/78/9
f 51/78/9 37/77/9 40/79/9 54/80/9
f 54/80/10 40/79/10 41/81/10 55/82/10
f 55/82/11 41/81/11 42/83/11 56/84/11
f 56/84/12 42/83/12 39/85/12 53/86/12
f 53/86/12 39/85/12 36/87/12 50/88/12
f 4/7/1 29/46/1 33/45/1 8/8/1
f 8/43/13 33/89/13 47/90/13 22/44/13
f 22/21/2 47/60/2 43/59/2 18/22/2
f 61/91/1 57/92/1 58/93/1 62/94/1
f 62/94/1 58/93/1 59/95/1 63/96/1
f 63/96/1 59/95/1 60/97/1 64/98/1
f 65/99/1 62/94/1 63/96/1 66/100/1
f 66/100/1 63/96/1 64/98/1 67/101/1
f 68/102/1 65/99/1 66/100/1 69/103/1
f 69/103/1 66/100/1 67/101/1 70/104/1
f 71/105/2 75/106/2 76/107/2 72/108/2
f 72/108/2 76/107/2 77/109/2 73/110/2
f 73/110/2 77/109/2 78/111/2 74/112/2
f 76/107/2 79/113/2 80/114/2 77/109/2
f 77/109/2 80/114/2 81/115/2 78/111/2
f 79/113/2 82/116/2 83/117/2 80/114/2
f 80/114/2 83/117/2 84/118/2 81/115/2
f 75/119/14 61/120/14 62/121/14 76/122/14
f 76/122/15 62/121/15 65/123/15 79/124/15
f 79/124/15 65/123/15 68/125/15 82/126/15
f 82/126/16 68/125/16 69/127/16 83/128/16
f 83/128/17 69/127/17 70/129/17 84/130/17
f 84/130/18 70/129/18 67/131/18 81/132/18
f 81/132/18 67/131/18 64/133/18 78/134/18
f 32/51/1 57/92/1 61/91/1 36/52/1
f 36/87/19 61/120/19 75/119/19 50/88/19
f 50/65/2 75/106/2 71/105/2 46/66/2
f 89/135/1 85/136/1 86/137/1 90/138/1
f 90/138/1 86/137/1 87/139/1 91/140/1
f 91/140/1 87/139/1 88/141/1 92/142/1
f 93/143/1 90/138/1 91/140/1 94/144/1
f 94/144/1 91/140/1 92/142/1 95/145/1
f 96/146/1 93/143/1 94/144/1 97/147/1
f 97/147/1 94/144/1 95/145/1 98/148/1
f 99/149/2 103/150/2 104/151/2 100/152/2
f 100/152/2 104/151/2 105/153/2 101/154/2
f 101/154/2 105/153/2 106/155/2 102/156/2
f 104/151/2 107/157/2 108/158/2 105/153/2
f 105/153/2 108/158/2 109/159/2 106/155/2
f 107/157/2 110/160/2 111/161/2 108/158/2
f 108/158/2 111/161/2 112/162/2 109/159/2
f 103/163/20 89/164/20 90/165/20 104/166/20
f 104/166/21 90/165/21 93/167/21 107/168/21
f 107/168/21 93/167/21 96/169/21 110/170/21
f 110/170/22 96/169/22 97/171/22 111/172/22
f 111/172/23 97/171/23 98/173/23 112/174/23
f 112/174/24 98/173/24 95/175/24 109/176/24
f 109/176/24 95/175/24 92/177/24 106/178/24
f 60/97/1 85/136/1 89/135/1 64/98/1
f 64/133/25 89/179/25 103/180/25 78/134/25
f 78/111/2 103/150/2 99/149/2 74/112/2
f 117/181/1 113/182/1 114/183/1 118/184/1
f 118/184/1 114/183/1 115/185/1 119/186/1
f 119/186/1 115/185/1 116/187/1 120/188/1
f 121/189/1 118/184/1 119/186/1 122/190/1
f 122/190/1 119/186/1 120/188/1 123/191/1
f 124/192/1 121/189/1 122/190/1 125/193/1
f 125/193/1 122/190/1 123/191/1 126/194/1
f 127/195/2 131/196/2 132/197/2 128/198/2
f 128/198/2 132/197/2 133/199/2 129/200/2
f 129/200/2 133/199/2 134/201/2 130/202/2
f 132/197/2 135/203/2 136/204/2 133/199/2
f 133/199/2 136/204/2 137/205/2 134/201/2
f 135/203/2 138/206/2 139/207/2 136/204/2
f 136/204/2 139/207/2 140/208/2 137/205/2
f 131/209/26 117/210/26 118/211/26 132/212/26
f 132/212/27 118/211/27 121/213/27 135/214/27
f 135/214/27 121/213/27 124/215/27 138/216/27
f 138/216/28 124/215/28 125/217/28 139/218/28
f 139/218/29 125/217/29 126/219/29 140/220/29
f 140/220/30 126/219/30 123/221/30 137/222/30
f 137/222/30 123/221/30 120/223/30 134/224/30
f 88/141/1 113/182/1 117/181/1 92/142/1
f 92/177/31 117/210/31 131/209/31 106/178/31
f 106/155/2 131/196/2 127/195/2 102/156/2
f 145/225/1 141/226/1 142/227/1 146/228/1
f 146/228/1 142/227/1 143/229/1 147/230/1
f 147/230/1 143/229/1 144/231/1 148/232/1
f 149/233/1 146/228/1 147/230/1 150/234/1
f 150/234/1 147/230/1 148/232/1 151/235/1
f 152/236/1 149/233/1 150/234/1 153/237/1
f 153/237/1 150/234/1 151/235/1 154/238/1
f 155/239/2 159/240/2 160/241/2 156/242/2
f 156/242/2 160/241/2 161/243/2 157/244/2
f 157/244/2 161/243/2 162/245/2 158/246/2
f 160/241/2 163/247/2 164/248/2 161/243/2
f 161/243/2 164/248/2 165/249/2 162/245/2
f 163/247/2 166/250/2 167/251/2 164/248/2
f 164/248/2 167/251/2 168/252/2 165/249/2
f 159/253/32 145/254/32 146/255/32 160/256/32
f 160/256/33 146/255/33 149/257/33 163/258/33
f 163/258/33 149/257/33 152/259/33 166/260/33
f 166/260/34 152/259/34 153/261/34 167/262/34
f 167/262/35 153/261/35 154/263/35 168/264/35
f 168/264/36 154/263/36 151/265/36 165/266/36
f 165/266/36 151/265/36 148/267/36 162/268/36
f 116/187/1 141/226/1 145/225/1 120/188/1
f 120/223/37 145/269/37 159/270/37 134/224/37
f 134/201/2 159/240/2 155/239/2 130/202/2
f 173/271/1 169/272/1 170/273/1 174/274/1
f 174/274/1 170/273/1 171/275/1 175/276/1
f 175/276/1 171/275/1 172/277/1 176/278/1
f 177/279/1 174/274/1 175/276/1 178/280/1
f 178/280/1 175/276/1 176/278/1 179/281/1
f 180/282/1 177/279/1 178/280/1 181/283/1
f 181/283/1 178/280/1 179/281/1 182/284/1
f 183/285/2 187/286/2 188/287/2 184/288/2
f 184/288/2 188/287/2 189/289/2 185/290/2
f 185/290/2 189/289/2 190/291/2 186/292/2
f 188/287/2 191/293/2 192/294/2 189/289/2
f 189/289/2 192/294/2 193/295/2 190/291/2
f 191/293/2 194/296/2 195/297/2 192/294/2
f 192/294/2 195/297/2 196/298/2 193/295/2
f 187/299/38 173/300/38 174/301/38 188/302/38
f 188/302/39 174/301/39 177/303/39 191/304/39
f 191/304/39 177/303/39 180/305/39 194/306/39
f 194/306/40 180/305/40 181/307/40 195/308/40
f 195/308/41 181/307/41 182/309/41 196/310/41
f 196/310/42 182/309/42 179/311/42 193/312/42
f 193/312/42 179/311/42 176/313/42 190/314/42
f 144/231/1 169/272/1 173/271/1 148/232/1
f 148/267/43 173/300/43 187/299/43 162/268/43
f 162/245/2 187/286/2 183/285/2 158/246/2
f 201/315/1 197/316/1 198/317/1 202/318/1
f 202/318/1 198/317/1 199/319/1 203/320/1
f 203/320/1 199/319/1 200/321/1 204/322/1
f 205/323/1 202/318/1 203/320/1 206/324/1
f 206/324/1 203/320/1 204/322/1 207/325/1
f 208/326/1 205/323/1 206/324/1 209/327/1
f 209/327/1 206/324/1 207/325/1 210/328/1
f 211/329/2 215/330/2 216/331/2 212/332/2
f 212/332/2 216/331/2 217/333/2 213/334/2
f 213/334/2 217/333/2 218/335/2 214/336/2
f 216/331/2 219/337/2 220/338/2 217/333/2
f 217/333/2 220/338/2 221/339/2 218/335/2
f 219/337/2 222/340/2 223/341/2 220/338/2
f 220/338/2 223/341/2 224/342/2 221/339/2
f 215/343/44 201/344/44 202/345/44 216/346/44
f 216/346/45 202/345/45 205/347/45 219/348/45
f 219/348/45 205/347/45 208/349/45 222/350/45
f 222/350/46 208/349/46 209/351/46 223/352/46
f 223/352/47 209/351/47 210/353/47 224/354/47
f 224/354/48 210/353/48 207/355/48 221/356/48
f 221/356/48 207/355/48 204/357/48 218/358/48
f 172/277/1 197/316/1 201/315/1 176/278/1
f 176/313/49 201/359/49 215/360/49 190/314/49
f 190/291/2 215/330/2 211/329/2 186/292/2
f 200/321/1 1/2/1 5/1/1 204/322/1
f 204/357/50 5/30/50 19/29/50 218/358/50
f 218/335/2 19/16/2 15/15/2 214/336/2
f 2/361/28 16/362/28 17/363/28 3/364/28
f 3/364/29 17/363/29 18/365/29 4/366/29
f 4/366/37 18/365/37 43/367/37 29/368/37
f 29/369/32 43/370/32 44/371/32 30/372/32
f 30/372/34 44/371/34 45/373/34 31/374/34
f 31/374/35 45/373/35 46/375/35 32/376/35
f 32/376/43 46/375/43 71/377/43 57/378/43
f 57/378/38 71/377/38 72/379/38 58/380/38
f 58/380/40 72/379/40 73/381/40 59/382/40
f 59/382/41 73/381/41 74/383/41 60/384/41
f 60/384/49 74/383/49 99/385/49 85/386/49
f 85/387/44 99/388/44 100/389/44 86/390/44
f 86/390/46 100/389/46 101/391/46 87/392/46
f 87/392/47 101/391/47 102/393/47 88/394/47
f 88/394/50 102/393/50 127/395/50 113/396/50
f 113/396/3 127/395/3 128/397/3 114/398/3
f 114/398/5 128/397/5 129/399/5 115/400/5
f 115/400/6 129/399/6 130/401/6 116/402/6
f 116/402/13 130/401/13 155/403/13 141/404/13
f 141/405/8 155/406/8 156/407/8 142/408/8
f 142/408/10 156/407/10 157/409/10 143/410/10
f 143/410/11 157/409/11 158/411/11 144/412/11
f 144/412/19 158/411/19 183/413/19 169/414/19
f 169/414/14 183/413/14 184/415/14 170/416/14
f 170/416/16 184/415/16 185/417/16 171/418/16
f 171/418/17 185/417/17 186/419/17 172/420/17
f 172/420/25 186/419/25 211/421/25 197/422/25
f 197/423/20 211/424/20 212/425/20 198/426/20
f 198/426/22 212/425/22 213/427/22 199/428/22
f 199/428/23 213/427/23 214/429/23 200/430/23
f 200/430/31 214/429/31 15/431/31 1/432/31
f 1/432/26 15/431/26 16/362/26 2/361/26
