mtllib basic_materials.mtl
o Cube.006_Cube.007
v -0.062188 -0.125000 0.550000
v 0.062500 -0.125000 0.550000
v 0.062500 0.125000 0.550000
v -0.062500 0.125000 0.550000
v -0.125000 -0.062500 0.550000
v -0.125000 0.062500 0.550000
v -0.062188 -0.062500 -0.612500
v -0.062500 0.062500 -0.612500
v 0.125000 0.062500 0.550000
v 0.125000 -0.062500 0.550000
v 0.062500 0.062500 0.550000
v 0.062500 -0.062500 0.550000
v -0.062500 0.062500 0.550000
v -0.062188 -0.062500 0.550000
v 0.062500 -0.062500 -0.612500
v 0.062500 0.062500 -0.612500
v -0.125000 -0.062500 -0.446875
v -0.125000 -0.062500 0.275000
v -0.125000 -0.062500 -0.000000
v -0.125000 -0.062500 -0.275000
v -0.125000 0.062500 0.275000
v -0.125000 0.062500 -0.000000
v -0.125000 0.062500 -0.275000
v -0.062500 0.062500 0.275000
v -0.062500 0.062500 -0.000000
v -0.062500 0.062500 -0.275000
v -0.062500 0.125000 0.275000
v -0.062500 0.125000 -0.000000
v -0.062500 0.125000 -0.275000
v 0.062500 0.125000 -0.275000
v 0.062500 0.125000 0.000000
v 0.062500 0.125000 0.275000
v 0.062500 0.062500 0.275000
v 0.062500 0.062500 -0.000000
v 0.062500 0.062500 -0.275000
v 0.125000 0.062500 -0.275000
v 0.125000 0.062500 0.000000
v 0.125000 0.062500 0.275000
v 0.125000 -0.062500 0.275000
v 0.125000 -0.062500 -0.000000
v 0.125000 -0.062500 -0.275000
v 0.062500 -0.062500 -0.275000
v 0.062500 -0.062500 0.000000
v 0.062500 -0.062500 0.275000
v 0.062500 -0.125000 -0.275000
v 0.062500 -0.125000 0.000000
v 0.062500 -0.125000 0.275000
v -0.062188 -0.125000 -0.275000
v -0.062188 -0.125000 0.000000
v -0.062188 -0.125000 0.275000
v -0.062188 -0.062500 0.275000
v -0.062188 -0.062500 -0.000000
v -0.062188 -0.062500 -0.275000
v 0.062500 -0.062500 0.612500
v 0.062500 -0.125000 0.612500
v -0.062188 -0.062500 0.612500
v -0.062188 -0.125000 0.612500
v 0.062500 0.125000 0.612500
v 0.062500 0.062500 0.612500
v 0.125000 -0.062500 0.612500
v 0.125000 0.062500 0.612500
v -0.125000 -0.062500 0.612500
v -0.125000 0.062500 0.612500
v -0.062500 0.125000 0.612500
v -0.062500 0.062500 0.612500
v 0.187500 -0.062500 0.550000
v 0.187500 0.062500 0.550000
v 0.187500 -0.062500 0.612500
v 0.187500 0.062500 0.612500
v 0.125000 0.125000 0.550000
v 0.062500 0.125000 0.550000
v 0.125000 0.125000 0.612500
v 0.062500 0.125000 0.612500
v 0.062500 0.187500 0.550000
v -0.062500 0.187500 0.550000
v 0.062500 0.187500 0.612500
v -0.062500 0.187500 0.612500
v -0.125000 0.125000 0.550000
v -0.125000 0.062500 0.550000
v -0.125000 0.125000 0.612500
v -0.125000 0.062500 0.612500
v -0.187500 -0.062500 0.550000
v -0.187500 0.062500 0.550000
v -0.187500 -0.062500 0.612500
v -0.187500 0.062500 0.612500
v -0.124688 -0.062500 0.550000
v -0.124688 -0.125000 0.550000
v -0.124688 -0.062500 0.612500
v -0.124688 -0.125000 0.612500
v 0.125000 -0.062500 0.550000
v 0.125000 -0.125000 0.550000
v 0.125000 -0.062500 0.612500
v 0.125000 -0.125000 0.612500
v 0.062500 -0.187500 0.550000
v -0.062188 -0.187500 0.550000
v 0.062500 -0.187500 0.612500
v -0.062188 -0.187500 0.612500
v 0.062500 -0.062500 0.675000
v 0.062500 -0.125000 0.675000
v -0.062188 -0.062500 0.675000
v -0.062188 -0.125000 0.675000
v 0.125000 -0.062500 0.675000
v 0.125000 0.062500 0.675000
v -0.125000 -0.062500 0.675000
v -0.125000 0.062500 0.675000
v -0.062500 0.125000 0.675000
v -0.062500 0.062500 0.675000
v 0.062500 0.062500 0.675000
v 0.062500 0.125000 0.675000
v 0.187500 -0.062500 0.675000
v 0.187500 0.062500 0.675000
v 0.125000 0.125000 0.675000
v 0.062500 0.125000 0.675000
v 0.062500 0.187500 0.675000
v -0.062500 0.187500 0.675000
v -0.125000 0.125000 0.675000
v -0.125000 0.062500 0.675000
v -0.187500 -0.062500 0.675000
v -0.187500 0.062500 0.675000
v -0.124688 -0.062500 0.675000
v -0.124688 -0.125000 0.675000
v 0.125000 -0.062500 0.675000
v 0.125000 -0.125000 0.675000
v 0.062500 -0.187500 0.675000
v -0.062188 -0.187500 0.675000
v -0.125000 -0.062500 -0.481250
v -0.125000 0.062500 -0.446875
v -0.062500 0.062500 -0.446875
v -0.062500 0.125000 -0.446875
v 0.062500 0.062500 -0.446875
v 0.125000 -0.062500 -0.446875
v -0.062188 -0.062500 -0.446875
v 0.062500 0.125000 -0.446875
v 0.125000 0.062500 -0.446875
v 0.062500 -0.062500 -0.446875
v 0.062500 -0.125000 -0.481250
v 0.062500 -0.125000 -0.446875
v -0.062188 -0.125000 -0.481250
v -0.062188 -0.125000 -0.446875
vt 0.2500 0.2500
vt 0.7500 0.2500
vt 0.7500 0.5000
vt 0.2500 0.5000
vt 0.6250 0.3750
vt 0.6250 0.6250
vt 0.3750 0.6250
vt 0.3750 0.3750
vt 0.6250 0.3750
vt 0.6250 0.6250
vt 0.3750 0.6250
vt 0.3750 0.3750
vt 0.6237 0.3750
vt 0.6237 0.6250
vt 0.3750 0.6250
vt 0.3750 0.3750
vt 0.7499 0.7500
vt 0.2500 0.7499
vt 0.2513 0.2501
vt 0.7499 0.2501
vt 0.9999 0.5004
vt 0.0001 0.5004
vt 0.0001 0.0001
vt 0.9999 0.0001
vt 1.0000 0.2273
vt 0.0000 0.2273
vt 0.0000 0.0000
vt 1.0000 0.0000
vt 1.0000 0.0000
vt 1.0000 0.2273
vt 0.0000 0.2273
vt 0.0000 0.0000
vt 0.9999 0.0001
vt 0.9999 0.4993
vt 0.0001 0.4993
vt 0.0001 0.0001
vt 0.0000 0.0000
vt 1.0000 0.0000
vt 1.0000 0.2284
vt 0.0000 0.2284
vt 0.0000 0.0000
vt 1.0000 0.0000
vt 1.0000 0.2284
vt 0.0000 0.2284
vt 0.0000 0.0000
vt 1.0000 0.0000
vt 1.0000 0.2284
vt 0.0000 0.2284
vt 0.0000 0.2273
vt 0.0000 0.0000
vt 1.0000 0.0000
vt 1.0000 0.2273
vt 0.0000 0.2273
vt 0.0000 0.0000
vt 1.0000 0.0000
vt 1.0000 0.2273
vt 0.0000 0.2273
vt 0.0000 0.0000
vt 1.0000 0.0000
vt 1.0000 0.2273
vt 0.0000 0.0000
vt 1.0000 0.0000
vt 1.0000 0.2273
vt 0.0000 0.2273
vt 0.0000 0.0000
vt 1.0000 0.0000
vt 1.0000 0.2273
vt 0.0000 0.2273
vt 0.0000 0.0000
vt 1.0000 0.0000
vt 1.0000 0.2273
vt 0.0000 0.2273
vt 0.6250 0.0001
vt 0.6250 0.4986
vt 0.0001 0.4986
vt 0.0001 0.0001
vt 0.9999 0.0001
vt 0.9999 0.4993
vt 0.0001 0.4993
vt 0.0001 0.0001
vt 0.9999 0.0001
vt 0.9999 0.4993
vt 0.0001 0.4993
vt 0.0001 0.0001
vt 0.7500 -0.0000
vt 0.7500 0.2499
vt 0.2500 0.2499
vt 0.2500 -0.0000
vt 1.0000 0.0000
vt 1.0000 0.2273
vt 0.0000 0.2273
vt 0.0000 0.0000
vt 1.0000 0.0000
vt 1.0000 0.2273
vt 0.0000 0.2273
vt 0.0000 0.0000
vt 0.0001 0.5004
vt 0.0001 0.0001
vt 0.9999 0.0001
vt 0.9999 0.5004
vt 0.0001 0.5004
vt 0.0001 0.0001
vt 0.9999 0.0001
vt 0.9999 0.5004
vt 0.0001 0.5004
vt 0.0001 0.0001
vt 0.9999 0.0001
vt 0.9999 0.5004
vt 0.7500 0.2499
vt 0.2500 0.2499
vt 0.2500 -0.0000
vt 0.7500 0.0000
vt 1.0000 0.2273
vt 0.0000 0.2273
vt 0.0000 0.0000
vt 1.0000 0.0000
vt 1.0000 0.2273
vt 0.0000 0.2273
vt 0.0000 0.0000
vt 1.0000 0.0000
vt 0.0000 0.0000
vt 1.0000 0.0000
vt 1.0000 0.2273
vt 0.0000 0.2273
vt 0.0000 0.0000
vt 1.0000 0.0000
vt 1.0000 0.2273
vt 0.0000 0.2273
vt 0.0000 0.0000
vt 1.0000 0.0000
vt 1.0000 0.2273
vt 0.0000 0.2273
vt 0.6250 0.5005
vt 0.0001 0.5005
vt 0.0001 0.0001
vt 0.6250 0.0001
vt 0.9999 0.5004
vt 0.0001 0.5004
vt 0.0001 0.0001
vt 0.9999 0.0001
vt 0.0001 0.0000
vt 0.9999 -0.0000
vt 0.9999 0.5000
vt 0.0001 0.5000
vt 0.0000 0.2273
vt 0.0000 0.0000
vt 1.0000 0.0000
vt 1.0000 0.2273
vt 0.0000 0.2273
vt 0.0000 0.0000
vt 1.0000 0.0000
vt 1.0000 0.2273
vt 0.0000 0.2273
vt 0.0000 0.0000
vt 1.0000 0.0000
vt 1.0000 0.2273
vt 0.0000 0.2273
vt 0.0000 0.0000
vt 1.0000 0.0000
vt 1.0000 0.2273
vt 0.0000 0.2273
vt 0.0000 0.0000
vt 1.0000 0.0000
vt 1.0000 0.2273
vt 0.0000 0.2273
vt 0.0000 0.0000
vt 1.0000 0.0000
vt 1.0000 0.2273
vt 0.0001 0.0001
vt 0.9999 0.0001
vt 0.9999 0.5000
vt 0.0001 0.5000
vt 0.0001 0.0001
vt 0.9999 0.0001
vt 0.9999 0.5000
vt 0.0001 0.5000
vt 0.0001 0.0001
vt 0.9999 0.0001
vt 0.9999 0.5000
vt 0.0001 0.5000
vt 0.2500 0.2500
vt 0.7500 0.2501
vt 0.7499 0.7487
vt 0.2500 0.7499
vt 0.5006 0.7500
vt 0.2500 0.7500
vt 0.2500 0.2500
vt 0.5006 0.2500
vt 0.2500 0.2500
vt 0.5012 0.2500
vt 0.5000 0.7500
vt 0.2500 0.7500
vt 0.2500 0.2500
vt 0.7500 0.2500
vt 0.7500 0.5000
vt 0.2500 0.5000
vt 0.5000 0.7500
vt 0.2500 0.7500
vt 0.2500 0.2500
vt 0.5000 0.2500
vt 0.7500 0.5000
vt 0.2500 0.5000
vt 0.2500 0.2500
vt 0.7500 0.2500
vt 0.5000 0.2500
vt 0.5000 0.7500
vt 0.2500 0.7500
vt 0.2500 0.2500
vt 0.3750 0.3750
vt 0.6250 0.3750
vt 0.6250 0.6250
vt 0.3750 0.6250
vt 0.2500 0.7500
vt 0.2500 0.2500
vt 0.5006 0.2500
vt 0.5006 0.7500
vt 0.3750 0.3750
vt 0.6250 0.3750
vt 0.6250 0.6250
vt 0.3750 0.6250
vt 0.7500 0.5000
vt 0.2500 0.5000
vt 0.2500 0.2500
vt 0.7500 0.2500
vt 0.2500 0.7500
vt 0.2500 0.2500
vt 0.5000 0.2500
vt 0.5000 0.7500
vt 0.3750 0.3750
vt 0.6250 0.3750
vt 0.6250 0.6250
vt 0.3750 0.6250
vt 0.6250 0.3750
vt 0.6250 0.6250
vt 0.3750 0.6250
vt 0.3750 0.3750
vt 0.3750 0.6250
vt 0.3750 0.3750
vt 0.6250 0.3750
vt 0.6250 0.6250
vt 0.5000 0.2500
vt 0.5000 0.7500
vt 0.2500 0.7500
vt 0.5006 0.2500
vt 0.5006 0.7500
vt 0.2500 0.7500
vt 0.2500 0.2500
vt 0.7500 0.3750
vt 0.2500 0.3750
vt 0.2500 0.1251
vt 0.7500 0.1251
vt 0.6250 0.6250
vt 0.3750 0.6250
vt 0.3750 0.3750
vt 0.6250 0.3750
vt 0.6250 0.3750
vt 0.6250 0.6250
vt 0.3750 0.6250
vt 0.3750 0.3750
vt 0.3750 0.3750
vt 0.6250 0.3750
vt 0.6250 0.6250
vt 0.3750 0.6250
vt 0.6250 0.3750
vt 0.6250 0.6250
vt 0.3750 0.6250
vt 0.3750 0.3750
vt 0.3750 0.3750
vt 0.6250 0.3750
vt 0.6250 0.6250
vt 0.3750 0.6250
vt 0.6250 0.6250
vt 0.3750 0.6250
vt 0.3750 0.3750
vt 0.3750 0.3750
vt 0.6250 0.3750
vt 0.2500 0.7500
vt 0.2500 0.2500
vt 0.5000 0.2500
vt 0.5000 0.7500
vt 0.6250 0.6250
vt 0.3750 0.6250
vt 0.3750 0.3750
vt 0.6250 0.3750
vt 0.2500 0.7500
vt 0.2500 0.2500
vt 0.5000 0.2500
vt 0.5000 0.7500
vt 0.2500 0.2500
vt 0.7500 0.2500
vt 0.7500 0.5000
vt 0.2500 0.5000
vt 0.6250 0.3750
vt 0.6250 0.6250
vt 0.3750 0.6250
vt 0.3750 0.3750
vt 0.3750 0.3750
vt 0.6250 0.3750
vt 0.6250 0.3750
vt 0.6250 0.6250
vt 0.3750 0.6250
vt 0.3750 0.3750
vt 0.3750 0.6250
vt 0.3750 0.3750
vt 0.2500 0.2500
vt 0.7500 0.2500
vt 0.7500 0.5000
vt 0.2500 0.5000
vt 0.5000 0.2500
vt 0.5000 0.7500
vt 0.2500 0.7500
vt 0.2500 0.2500
vt 0.2500 0.2500
vt 0.7500 0.2500
vt 0.7500 0.5000
vt 0.2500 0.5000
vt 0.6250 0.6250
vt 0.3750 0.6250
vt 0.3750 0.3750
vt 0.6250 0.3750
vt 0.6250 0.3750
vt 0.6250 0.6250
vt 0.3750 0.6250
vt 0.3750 0.3750
vt 0.2500 0.2500
vt 0.5006 0.2500
vt 0.6250 0.3750
vt 0.6250 0.6250
vt 0.3750 0.6250
vt 0.3750 0.3750
vt 0.6250 0.6250
vt 0.3750 0.6250
vt 0.3750 0.3750
vt 0.6250 0.3750
vt 0.6250 0.6250
vt 0.3750 0.6250
vt 0.3750 0.3750
vt 0.7500 0.5000
vt 0.7500 0.2500
vt 0.3750 0.3750
vt 0.6250 0.3750
vt 0.6250 0.6250
vt 0.3750 0.6250
vt 0.3750 0.6250
vt 0.3750 0.3750
vt 0.6250 0.3750
vt 0.2500 0.2500
vt 0.7500 0.2500
vt 0.7500 0.5006
vt 0.2500 0.5006
vt 0.6250 0.6250
vt 0.3750 0.6250
vt 0.3750 0.3750
vt 0.6250 0.3750
vt 0.2500 0.2500
vt 0.7500 0.2500
vt 0.7500 0.5006
vt 0.2500 0.5006
vt 0.3750 0.3750
vt 0.6250 0.3750
vt 0.6250 0.6250
vt 0.3750 0.6250
vt 0.2500 0.7500
vt 0.2500 0.2500
vt 0.5006 0.2500
vt 0.5006 0.7500
vt 0.3750 0.3750
vt 0.6250 0.3750
vt 0.6250 0.6250
vt 0.3750 0.6250
vt 0.6250 0.3750
vt 0.6250 0.6250
vt 0.3750 0.6250
vt 0.3750 0.3750
vt 0.2500 0.2500
vt 0.7500 0.2500
vt 0.7500 0.5000
vt 0.2500 0.5000
vt 0.5000 0.2500
vt 0.5000 0.7500
vt 0.2500 0.7500
vt 0.2500 0.2500
vt 0.6250 0.3750
vt 0.6250 0.6250
vt 0.5000 0.2500
vt 0.5000 0.7500
vt 0.2500 0.7500
vt 0.2500 0.2500
vt 0.6250 0.6250
vt 0.3750 0.6250
vt 0.6250 0.3750
vt 0.6250 0.3750
vt 0.6250 0.6250
vt 0.3750 0.6250
vt 0.3750 0.3750
vt 0.6250 0.3750
vt 0.6250 0.6250
vt 0.3750 0.6250
vt 0.3750 0.3750
vt 0.9999 0.5013
vt 0.0001 0.5013
vt 0.0001 0.0001
vt 0.9999 0.0001
vt 0.6250 0.3750
vt 0.6250 0.6250
vt 0.3750 0.6250
vt 0.3750 0.3750
vt 0.2500 0.7500
vt 0.2500 0.2500
vt 0.5000 0.2500
vt 0.5000 0.7500
vt 0.6250 0.3750
vt 0.6250 0.6250
vt 0.3750 0.6250
vt 0.3750 0.3750
vt 0.6250 0.3750
vt 0.6250 0.6250
vt 0.3750 0.6250
vt 0.3750 0.3750
vt 0.6250 0.3750
vt 0.6250 0.6250
vt 0.3750 0.6250
vt 0.3750 0.3750
vt 0.6250 0.3750
vt 0.6250 0.6250
vt 0.3750 0.6250
vt 0.3750 0.3750
vt 0.6250 0.3750
vt 0.6250 0.6250
vt 0.3750 0.6250
vt 0.3750 0.3750
vt 0.6250 0.3750
vt 0.3750 0.3750
vt 0.6250 0.3750
vt 0.6250 0.6250
vt 0.3750 0.3750
vt 0.6250 0.3750
vt 0.6250 0.6250
vt 0.3750 0.6250
vt 0.3750 0.3750
vt 0.6250 0.3750
vt 0.3750 0.3750
vt 0.6250 0.3750
vt 0.6250 0.6250
vt 0.3750 0.6250
vt 0.3750 0.3750
vt 0.6250 0.3750
vt 0.6250 0.6250
vt 0.3750 0.6250
vt 0.3750 0.3750
vt 0.6250 0.3750
vt 0.6250 0.6250
vt 0.3750 0.6250
vt 0.3750 0.3750
vt 0.6250 0.3750
vt 0.6250 0.6250
vt 0.3750 0.6250
vt 0.3750 0.3750
vt 0.6250 0.3750
vt 0.6250 0.6250
vt 0.3750 0.3750
vt 0.6250 0.3750
vt 0.6250 0.3750
vt 0.6250 0.6250
vt 0.3750 0.6250
vt 0.3750 0.3750
vt 0.5000 0.0001
vt 0.5000 0.9999
vt 0.0001 0.9999
vt 0.0001 0.0001
vt 0.6250 0.3750
vt 0.6250 0.6250
vt 0.3750 0.6250
vt 0.6250 0.6250
vt 0.2500 0.5000
vt 0.2500 0.2500
vt 0.7500 0.2500
vt 0.7500 0.5000
vt 0.2500 0.0000
vt 0.7500 0.0000
vt 0.7500 0.2508
vt 0.2500 0.2508
vt 0.5006 0.2500
vt 0.5006 0.7500
vt 0.2500 0.7500
vt 0.2500 0.2500
vt 0.2500 0.2499
vt 0.2500 -0.0000
vt 0.7500 -0.0000
vt 0.7500 0.2499
vt 0.0000 0.0000
vt 0.8125 0.0000
vt 0.8125 0.5003
vt 0.0000 0.5003
vt 0.2500 0.0000
vt 0.7500 -0.0000
vt 0.7500 0.2499
vt 0.2500 0.2499
vt 0.8125 0.5003
vt 0.0000 0.5003
vt 0.0000 0.0000
vt 0.8125 0.0000
vt 0.0001 0.5005
vt 0.0001 0.0001
vt 0.6250 0.0001
vt 0.6250 0.5005
vt 0.2500 0.0000
vt 0.7500 -0.0000
vt 0.7500 0.2499
vt 0.2500 0.2499
vt 0.2500 0.2499
vt 0.2500 -0.0000
vt 0.7500 -0.0000
vt 0.7500 0.2499
vt 0.2500 0.7500
vt 0.2500 0.2500
vt 0.5000 0.2500
vt 0.5000 0.7500
vt 0.2500 0.2499
vt 0.2500 -0.0000
vt 0.7500 -0.0000
vt 0.7500 0.2499
vt 0.0000 0.0000
vt 0.8125 0.0000
vt 0.8125 0.4990
vt -0.0000 0.4990
vt 0.0001 0.0001
vt 0.6250 0.0001
vt 0.6250 0.5005
vt 0.0001 0.5005
vt 0.8125 0.0000
vt 0.8125 0.5003
vt -0.0000 0.5003
vt 0.0000 0.0000
vt 0.7500 0.2500
vt 0.7500 0.5012
vt 0.2500 0.5012
vt 0.2500 0.2513
vn -1.0000 0.0000 -0.0000
vn -0.0000 1.0000 -0.0000
vn 1.0000 0.0000 0.0000
vn 0.0000 -1.0000 0.0000
vn 0.0000 0.0000 1.0000
vn 0.0000 0.0000 -1.0000
vn 1.0000 0.0025 -0.0000
vn -1.0000 -0.0025 0.0000
usemtl Cobblestone
f 11/1/1 12/2/1 54/3/1 59/4/1
f 13/5/2 6/6/2 63/7/2 65/8/2
f 11/9/3 3/10/3 58/11/3 59/12/3
f 5/13/4 14/14/4 56/15/4 62/16/4
f 11/17/5 13/18/5 14/19/5 12/20/5
f 27/21/2 4/22/2 3/23/2 32/24/2
f 33/25/2 11/26/2 9/27/2 38/28/2
f 44/29/4 39/30/4 10/31/4 12/32/4
f 50/33/4 47/34/4 2/35/4 1/36/4
f 5/37/4 18/38/4 51/39/4 14/40/4
f 18/41/4 19/42/4 52/43/4 51/44/4
f 19/45/4 20/46/4 53/47/4 52/48/4
f 1/49/1 14/50/1 51/51/1 50/52/1
f 50/53/1 51/54/1 52/55/1 49/56/1
f 49/57/1 52/58/1 53/59/1 48/60/1
f 2/61/3 47/62/3 44/63/3 12/64/3
f 47/65/3 46/66/3 43/67/3 44/68/3
f 46/69/3 45/70/3 42/71/3 43/72/3
f 139/73/4 137/74/4 45/75/4 48/76/4
f 48/77/4 45/78/4 46/79/4 49/80/4
f 49/81/4 46/82/4 47/83/4 50/84/4
f 135/85/4 131/86/4 41/87/4 42/88/4
f 42/89/4 41/90/4 40/91/4 43/92/4
f 43/93/4 40/94/4 39/95/4 44/96/4
f 9/97/3 10/98/3 39/99/3 38/100/3
f 38/101/3 39/102/3 40/103/3 37/104/3
f 37/105/3 40/106/3 41/107/3 36/108/3
f 130/109/2 35/110/2 36/111/2 134/112/2
f 35/113/2 34/114/2 37/115/2 36/116/2
f 34/117/2 33/118/2 38/119/2 37/120/2
f 11/121/3 33/122/3 32/123/3 3/124/3
f 33/125/3 34/126/3 31/127/3 32/128/3
f 34/129/3 35/130/3 30/131/3 31/132/3
f 129/133/2 29/134/2 30/135/2 133/136/2
f 29/137/2 28/138/2 31/139/2 30/140/2
f 28/141/2 27/142/2 32/143/2 31/144/2
f 13/145/1 4/146/1 27/147/1 24/148/1
f 24/149/1 27/150/1 28/151/1 25/152/1
f 25/153/1 28/154/1 29/155/1 26/156/1
f 6/157/2 13/158/2 24/159/2 21/160/2
f 21/161/2 24/162/2 25/163/2 22/164/2
f 22/165/2 25/166/2 26/167/2 23/168/2
f 6/169/1 21/170/1 18/171/1 5/172/1
f 21/173/1 22/174/1 19/175/1 18/176/1
f 22/177/1 23/178/1 20/179/1 19/180/1
f 16/181/6 15/182/6 7/183/6 8/184/6
f 55/185/5 54/186/5 56/187/5 57/188/5
f 62/189/5 56/190/5 65/191/5 63/192/5
f 59/193/5 54/194/5 60/195/5 61/196/5
f 59/197/5 58/198/5 64/199/5 65/200/5
f 10/201/6 9/202/6 67/203/6 66/204/6
f 62/205/3 63/206/3 105/207/3 104/208/3
f 63/209/2 6/210/2 83/211/2 85/212/2
f 12/213/2 14/214/2 56/215/2 54/216/2
f 64/217/2 4/218/2 78/219/2 80/220/2
f 14/221/7 13/222/7 65/223/7 56/224/7
f 76/225/2 77/226/2 115/227/2 114/228/2
f 58/229/3 3/230/3 74/231/3 76/232/3
f 12/233/4 10/234/4 60/235/4 54/236/4
f 14/237/6 1/238/6 87/239/6 86/240/6
f 13/241/4 11/242/4 59/243/4 65/223/4
f 97/244/4 96/245/4 124/246/4 125/247/4
f 66/248/3 67/249/3 69/250/3 68/251/3
f 9/252/2 61/253/2 69/254/2 67/255/2
f 81/256/4 65/257/4 107/258/4 117/259/4
f 60/260/4 10/261/4 66/262/4 68/263/4
f 70/264/2 71/265/2 73/266/2 72/267/2
f 61/268/3 9/269/3 70/270/3 72/271/3
f 9/269/6 11/272/6 71/273/6 70/274/6
f 11/9/1 59/12/1 73/275/1 71/276/1
f 74/277/2 75/278/2 77/279/2 76/280/2
f 4/281/1 64/282/1 77/283/1 75/284/1
f 3/285/6 4/286/6 75/287/6 74/288/6
f 61/289/1 60/290/1 102/291/1 103/292/1
f 78/293/1 79/294/1 81/295/1 80/296/1
f 13/5/4 65/8/4 81/297/4 79/298/4
f 64/299/2 80/300/2 116/301/2 106/302/2
f 4/281/6 13/303/6 79/304/6 78/293/6
f 83/305/1 82/306/1 84/307/1 85/308/1
f 68/309/3 69/310/3 111/311/3 110/312/3
f 6/313/6 5/314/6 82/315/6 83/316/6
f 5/317/4 62/318/4 84/319/4 82/320/4
f 86/321/1 87/322/1 89/323/1 88/324/1
f 56/215/2 14/214/2 86/325/2 88/326/2
f 88/327/1 89/328/1 121/329/1 120/330/1
f 1/331/4 57/332/4 89/333/4 87/239/4
f 91/334/3 90/335/3 92/336/3 93/337/3
f 12/2/2 54/3/2 92/338/2 90/339/2
f 55/340/4 2/341/4 91/342/4 93/343/4
f 2/344/6 12/345/6 90/346/6 91/342/6
f 95/347/4 94/348/4 96/349/4 97/350/4
f 2/351/3 55/352/3 96/353/3 94/354/3
f 1/355/6 2/356/6 94/357/6 95/358/6
f 57/359/1 1/360/1 95/361/1 97/362/1
f 99/363/5 101/364/5 125/365/5 124/366/5
f 98/367/5 99/368/5 123/369/5 122/370/5
f 108/371/5 103/372/5 112/373/5 113/374/5
f 103/375/5 102/376/5 110/377/5 111/378/5
f 106/379/5 109/380/5 114/381/5 115/382/5
f 107/383/5 106/384/5 116/301/5 117/259/5
f 104/385/5 105/386/5 119/387/5 118/388/5
f 101/389/5 100/390/5 120/330/5 121/391/5
f 65/392/3 64/393/3 106/394/3 107/395/3
f 56/396/2 88/397/2 120/398/2 100/399/2
f 55/400/2 57/401/2 101/402/2 99/403/2
f 69/404/2 61/405/2 103/406/2 111/407/2
f 85/408/1 84/409/1 118/410/1 119/411/1
f 57/412/1 97/413/1 125/414/1 101/415/1
f 89/416/4 57/417/4 101/418/4 121/419/4
f 60/420/4 68/421/4 110/422/4 102/423/4
f 96/424/3 55/425/3 99/426/3 124/427/3
f 58/428/3 76/429/3 114/430/3 109/431/3
f 77/432/1 64/393/1 106/394/1 115/433/1
f 93/434/3 92/435/3 122/370/3 123/436/3
f 72/437/2 73/438/2 113/439/2 112/440/2
f 59/441/4 61/405/4 103/406/4 108/442/4
f 63/443/2 85/444/2 119/445/2 105/446/2
f 84/447/4 62/448/4 104/449/4 118/450/4
f 80/451/1 81/452/1 117/453/1 116/454/1
f 55/455/4 93/456/4 123/457/4 99/458/4
f 61/459/3 72/460/3 112/373/3 103/461/3
f 54/462/1 55/425/1 99/426/1 98/367/1
f 92/463/2 54/464/2 98/465/2 122/466/2
f 64/467/4 58/468/4 109/469/4 106/470/4
f 73/471/1 59/472/1 108/473/1 113/374/1
f 57/412/3 56/474/3 100/390/3 101/415/3
f 130/475/6 134/476/6 131/477/6 135/478/6
f 20/479/4 17/480/4 132/481/4 53/482/4
f 132/483/6 135/484/6 137/485/6 139/486/6
f 48/487/1 53/488/1 132/489/1 139/490/1
f 135/491/3 15/492/3 16/493/3 130/494/3
f 45/495/3 137/496/3 135/497/3 42/498/3
f 8/499/2 128/500/2 130/501/2 16/502/2
f 36/503/3 41/504/3 131/505/3 134/506/3
f 35/507/3 130/508/3 133/509/3 30/510/3
f 26/511/1 29/512/1 129/513/1 128/514/1
f 130/515/6 128/516/6 129/517/6 133/518/6
f 23/519/2 26/520/2 128/521/2 127/522/2
f 132/523/4 7/524/4 15/525/4 135/526/4
f 23/527/1 127/528/1 17/529/1 20/530/1
f 8/531/8 7/532/8 132/533/8 128/534/8
f 132/535/6 17/536/6 127/537/6 128/538/6
